<?xml version="1.0" encoding="utf-8"?>
<!-- Generator: Adobe Illustrator 21.1.0, SVG Export Plug-In . SVG Version: 6.00 Build 0)  -->
<svg version="1.1" id="Layer_1" xmlns="http://www.w3.org/2000/svg" xmlns:xlink="http://www.w3.org/1999/xlink" x="0px" y="0px"
	 viewBox="0 0 792 612" style="enable-background:new 0 0 792 612;" xml:space="preserve">
<style type="text/css">
	.st0{fill:#231F20;}
	.st1{fill:#BDBEC0;}
	.st2{fill:#595A5C;}
	.st3{fill:#424143;}
	.st4{fill:#718B90;}
	.st5{fill:#EC5926;}
	.st6{fill:#6E6F72;}
	.st7{fill:none;}
	.st8{fill:none;stroke:#EC5926;stroke-width:4.9799;stroke-miterlimit:10;}
</style>
<g>
	<path class="st0" d="M628.5,304.4c0,0-22.9,6-22.9-22.9c0-28.9-11.5-30.9-28.5-30.9c-17,0-14.4-14.5-14.4-14.5l-3.4-71.2l-8.9-0.7
		l-59.1-4.8c0,0-20.7-1.9-37.6-17.4c-1.5-1.3-2.9-2.8-4.3-4.3l0,0l0,0c-4.9-5.4-9.2-12.1-12.3-20.5c0,0-8.4-41-82-41
		c-73.6,0-115.1,0-115.1,0s-44.9,0-55.6,47c-11.6,51.3-42.8,51.9-42.8,51.9l-48.3,13.3c0,0-27.7,6-27.7,60.3c0,54.3,0,287.1,0,287.1
		s10.9,24.1,47,24.1c36.2,0,580.2,0,580.2,0s37.4-3.6,37.4-56.7V304.4H628.5z"/>
	<path class="st1" d="M707.2,348.2c0-11-8.9-19.9-19.9-19.9c-11,0-19.9,8.9-19.9,19.9c0,11,8.9,19.9,19.9,19.9
		C698.3,368.1,707.2,359.2,707.2,348.2z"/>
	<circle class="st1" cx="524.5" cy="214.7" r="19.6"/>
	<path class="st2" d="M595.7,547.4c0,6.9-5.6,12.5-12.4,12.5H129.6c-6.9,0-12.5-5.6-12.5-12.5V274.6c0-6.9,5.6-12.4,12.5-12.4h453.6
		c6.9,0,12.4,5.6,12.4,12.4V547.4z"/>
	<path class="st0" d="M577.1,538.4c0,6.9-5.6,12.5-12.4,12.5h-401c-6.9,0-12.5-5.6-12.5-12.5V282.8c0-6.9,5.6-12.5,12.5-12.5h401
		c6.9,0,12.4,5.6,12.4,12.5V538.4z"/>
	<path class="st3" d="M233.3,253.4c-23.3,0-42.3-19-42.3-42.3v-74.7c0-23.3,19-42.3,42.3-42.3h153c23.3,0,42.3,19,42.3,42.3V211
		c0,23.3-19,42.3-42.3,42.3H233.3z"/>
	<path class="st0" d="M423.6,211c0,20.6-16.7,37.4-37.4,37.4h-153c-20.6,0-37.4-16.7-37.4-37.4v-74.7c0-20.6,16.7-37.3,37.4-37.3
		h153c20.6,0,37.4,16.7,37.4,37.3V211z"/>
	<path class="st3" d="M401,223.6c0,6.9-5.6,12.4-12.5,12.4H231c-6.9,0-12.4-5.6-12.4-12.4v-99.9c0-6.9,5.6-12.5,12.4-12.5h157.6
		c6.9,0,12.5,5.6,12.5,12.5V223.6z"/>
	<path class="st0" d="M376.8,212.8c0,6.9-5.6,12.5-12.4,12.5H255.2c-6.9,0-12.4-5.6-12.4-12.5v-78.2c0-6.9,5.6-12.5,12.4-12.5h109.2
		c6.9,0,12.4,5.6,12.4,12.5V212.8z"/>
	<path class="st3" d="M356.2,196.3c0,6.9-5.6,12.4-12.4,12.4h-67.9c-6.9,0-12.4-5.6-12.4-12.4v-45.2c0-6.9,5.6-12.5,12.4-12.5h67.9
		c6.9,0,12.4,5.6,12.4,12.5V196.3z"/>
	<rect x="271.6" y="146.9" class="st4" width="76.3" height="53.6"/>
	<rect x="183.2" y="283.8" class="st1" width="379.5" height="253.7"/>
	<circle class="st1" cx="133.6" cy="220.9" r="13.4"/>
	<circle class="st1" cx="464.7" cy="214.7" r="15.5"/>
	<circle class="st5" cx="524.5" cy="214.7" r="9.3"/>
	<circle class="st3" cx="663.7" cy="428.1" r="54.7"/>
	<path class="st0" d="M665.6,446.6c9.8-0.6,17.3-8.9,16.7-18.7c-0.6-9.8-8.9-17.3-18.7-16.7c-9.8,0.6-17.3,8.9-16.7,18.7
		C647.5,439.7,655.9,447.1,665.6,446.6z"/>
	<g>
		<path class="st0" d="M635.9,428.2c0-4.9,1.2-9.4,3.4-13.4l-17.1-9.6c-3.8,6.8-6,14.6-6,23c0,8.9,2.5,17.2,6.8,24.3l16.9-9.9
			C637.4,438.4,635.9,433.5,635.9,428.2z"/>
		<path class="st0" d="M663.7,456c-4.8,0-9.3-1.2-13.3-3.4l-9.6,17.1c6.8,3.7,14.6,5.9,22.9,5.9c8.7,0,16.8-2.4,23.9-6.5l-9.9-16.9
			C673.6,454.6,668.8,456,663.7,456z"/>
		<path class="st0" d="M691.6,428.2c0,5.1-1.4,9.8-3.7,13.9l17.1,9.6c4-6.9,6.3-14.9,6.3-23.5c0-8.5-2.3-16.5-6.2-23.4l-16.9,9.9
			C690.3,418.6,691.6,423.2,691.6,428.2z"/>
		<path class="st0" d="M663.7,400.3c5.1,0,9.9,1.4,14,3.8l9.6-17.1c-7-4-15-6.3-23.6-6.3c-8.7,0-16.9,2.4-23.9,6.5l9.9,16.9
			C653.8,401.7,658.6,400.3,663.7,400.3z"/>
	</g>
	<path class="st3" d="M702.2,348.2c0-8.2-6.7-14.9-14.9-14.9c-8.2,0-14.9,6.7-14.9,14.9c0,8.2,6.7,14.9,14.9,14.9
		C695.6,363.1,702.2,356.4,702.2,348.2z"/>
	<circle class="st2" cx="640" cy="513.1" r="15.4"/>
	<path class="st6" d="M573.7,166c0,0-0.5-8.6,8.9-8.6c9.5,0,33.9-1.9,58.3,4.3c0,0,6-0.1,6.5,10.3L573.7,166z"/>
	<path class="st7" d="M453.5,142l-4.3-4.3C450.6,139.2,452.1,140.6,453.5,142z"/>
	<path class="st2" d="M669.7,173.8l-110.5-9l3.4,71.2c0,0-2.6,14.5,14.4,14.5c17,0,28.5,2,28.5,30.9c0,28.9,22.9,22.9,22.9,22.9H730
		v-72.7C730,231.7,720.4,173.8,669.7,173.8z"/>
	<path class="st3" d="M453.5,142c17,15.5,37.6,17.4,37.6,17.4l59.1,4.8c4.5-31.7-2.5-31.6-2.5-31.6c-35.4-12-88.2-10.4-88.2-10.4
		c-14.9-1.4-10.4,15.4-10.4,15.5c0,0,0,0,0,0L453.5,142z"/>
	<path class="st8" d="M449.2,137.6C449.2,137.6,449.2,137.6,449.2,137.6L449.2,137.6L449.2,137.6z"/>
</g>
<image style="overflow:visible;" width="4000" height="2667" xlink:href="../../assets/festival-hands-up-people-partying-picjumbo-com.jpg"  transform="matrix(9.969948e-02 0 0 9.969948e-02 168.8277 281.933)">
</image>
</svg>
