<?xml version="1.0" encoding="utf-8"?>
<!-- Generator: Adobe Illustrator 21.1.0, SVG Export Plug-In . SVG Version: 6.00 Build 0)  -->
<svg version="1.1" id="Layer_1" xmlns="http://www.w3.org/2000/svg" xmlns:xlink="http://www.w3.org/1999/xlink" x="0px" y="0px"
	 viewBox="0 0 792 612" style="enable-background:new 0 0 792 612;" xml:space="preserve">
<style type="text/css">
	.st0{fill:#3D9DB7;}
	.st1{fill:#FFFFFF;}
	.st2{font-family:'LaoMN-Bold';}
	.st3{font-size:52.8523px;}
</style>
<g>
	<path class="st0" d="M467.5,261.7c0,120.3-97.5,217.8-217.8,217.8C129.5,479.4,32,381.9,32,261.7c0-120.3,97.5-217.7,217.7-217.7
		C370,43.9,467.5,141.4,467.5,261.7z"/>
	<g>
		<path class="st1" d="M318.4,135.6c4.4,8.2,8.1,16.8,11,25.7c2.5,7.4,4.4,15.4,5.9,24.3c2.6,16.4,2.3,29.3,1.6,37.2
			c-0.1,3.1-0.5,5.9-0.8,8.1l-0.4,2.9c0.4,1.3,0.9,2.5,1.3,3.8c2.1,7.7,3.3,15.9,3.3,24.2c0,31.3-16,58.8-40.1,75.1
			c6.3-0.4,14-1.3,22.9-3.2c4-0.9,7.8-2,11.5-3.1c0.2-0.1,0.4-0.2,0.6-0.2c2.4-0.8,4.7-1.6,7-2.5c7.4-2.9,14.9-6.6,22.2-11.1
			c14.8-9,28.7-21.4,39.7-36c11-14.6,19-31.2,23.5-47.5c2.3-8.1,3.6-16.2,4.4-23.9c0.7-7.7,0.9-15,0.3-21.7
			c-0.3-8.5-1.7-16-3.1-22.2C394.8,101.5,327.3,58,249.6,58c-6.5,0-13,0.4-19.4,1c18.1,6.7,35.3,16.6,49.8,29
			C295.6,101.2,308.8,117.7,318.4,135.6z"/>
		<path class="st1" d="M124.8,192.9c8.1-4.4,16.8-8.1,25.7-11.1c7.4-2.5,15.4-4.4,24.3-5.9c8.8-1.4,17.6-2.1,26-2.1
			c4.2,0,8,0.2,11.2,0.5c3,0.1,5.8,0.5,7.9,0.7l2.3,0.3c1.2-0.4,2.3-0.8,3.4-1.2c7.6-2.1,15.6-3.2,23.9-3.2
			c32.4,0,60.6,17,76.7,42.5c-0.3-6.6-1.2-15.4-3.4-25.5c-0.9-3.9-1.9-7.6-3-11.1c-0.8-2.6-1.6-5.1-2.7-7.7c-3-7.4-6.7-15-11.2-22.3
			c-9-14.8-21.4-28.7-36-39.7c-3.2-2.4-6.5-4.6-9.8-6.8c-18.4-10.4-38.6-16.7-57.4-20.6c-1.4-0.2-2.8-0.3-4.1-0.5
			c-7.7-0.7-15-0.9-21.7-0.3c-9.5,0.4-17.7,2-24.3,3.6C88.9,117.1,45.8,184.4,45.8,261.8c0,7.5,0.5,14.8,1.3,22.1
			c6.7-19.1,17-37.3,30.1-52.6C90.4,215.7,106.8,202.4,124.8,192.9z"/>
		<path class="st1" d="M182.1,386.5c-4.4-8.2-8.1-16.8-11-25.7c-2.5-7.4-4.4-15.3-5.9-24.3c-2.6-16.4-2.3-29.3-1.6-37.2
			c0.1-2.7,0.4-5.1,0.7-7.1c-0.6-1.6-1.3-3.2-1.7-4.9c-2.4-8.1-3.6-16.6-3.6-25.5c0-32.4,17-60.6,42.6-76.7
			c-6.5,0.4-14.7,1.3-24.1,3.3c-4,0.9-7.7,1.9-11.3,3c-1.5,0.5-2.9,1-4.4,1.5c-1.1,0.4-2.2,0.8-3.3,1.2c-7.4,3-14.9,6.6-22.2,11.1
			c-14.8,9-28.7,21.4-39.7,36c-11,14.6-19,31.2-23.5,47.5c-2.2,8.2-3.6,16.2-4.4,23.9c-0.7,7.7-0.9,15-0.3,21.7
			c0.5,11.9,2.9,21.7,4.7,29C108,424.5,174,465.7,249.6,465.7c7.9,0,15.7-0.6,23.4-1.5c-19.1-6.7-37.3-17-52.6-30.1
			C204.8,420.9,191.6,404.5,182.1,386.5z"/>
		<path class="st1" d="M452.2,241.1c-6.7,18-16.5,35.2-29,49.7c-13.2,15.5-29.6,28.8-47.5,38.4c-8.2,4.4-16.8,8.1-25.7,11.1
			c-7.4,2.5-15.3,4.4-24.3,5.9c-8.8,1.4-17.6,2.1-26,2.1c-4.2,0-8-0.2-11.2-0.5c-3-0.1-5.8-0.5-8-0.7c-1.7,0.6-3.4,1.3-5.2,1.9
			c-8.2,2.4-16.8,3.7-25.7,3.7c-31.3,0-58.8-16-75.1-40.1c0.5,6,1.3,13.2,3.2,21.5c1.6,7.1,3.6,13.3,5.8,19.2
			c2.9,7.3,6.6,14.8,11.1,22c9,14.8,21.4,28.7,36,39.7c14.6,11,31.2,19,47.5,23.5c8.2,2.2,16.2,3.6,23.9,4.4
			c7.7,0.7,15,0.9,21.7,0.3c10.8-0.4,19.8-2.5,26.9-4.2c61.5-35.1,103-101.3,103-177.2C453.4,254.8,452.9,248,452.2,241.1z"/>
	</g>
	<text transform="matrix(1 0 0 1 400.7734 463.6211)" class="st2 st3">BIGPICTURE</text>
</g>
</svg>
