<?xml version="1.0" encoding="utf-8"?>
<!-- Generator: Adobe Illustrator 21.1.0, SVG Export Plug-In . SVG Version: 6.00 Build 0)  -->
<svg version="1.1" id="Layer_1" xmlns="http://www.w3.org/2000/svg" xmlns:xlink="http://www.w3.org/1999/xlink" x="0px" y="0px"
	 viewBox="0 0 792 612" style="enable-background:new 0 0 792 612;" xml:space="preserve">
<style type="text/css">
	.st0{fill:#FFFFFF;stroke:#000000;stroke-miterlimit:10;}
	.st1{fill:#27AABB;}
	.st2{stroke:#FFFFFF;stroke-width:0.8538;stroke-miterlimit:10;}
	.st3{fill:#101010;}
</style>
<circle class="st0" cx="393.7" cy="319.7" r="103"/>
<circle class="st1" cx="393.5" cy="113.4" r="43.2"/>
<circle class="st1" cx="396.7" cy="528.2" r="43.2"/>
<circle class="st1" cx="601" cy="320.8" r="43.2"/>
<circle class="st1" cx="185" cy="322.3" r="43.2"/>
<circle class="st0" cx="561.2" cy="450.9" r="43.2"/>
<circle class="st0" cx="547" cy="156.9" r="43.2"/>
<circle class="st0" cx="246.9" cy="156.7" r="43.2"/>
<circle class="st0" cx="232.6" cy="468" r="43.2"/>
<rect x="390.7" y="162.5" class="st2" width="5.9" height="48.2"/>
<rect x="487" y="194.8" transform="matrix(0.7573 0.6531 -0.6531 0.7573 261.8809 -266.8218)" class="st1" width="5.9" height="48.2"/>
<rect x="522.6" y="297.1" transform="matrix(-1.836970e-16 1 -1 -1.836970e-16 846.7809 -204.3421)" class="st2" width="5.9" height="48.2"/>
<rect x="258.4" y="297.5" transform="matrix(-1.836970e-16 1 -1 -1.836970e-16 582.8777 60.2258)" class="st2" width="5.9" height="48.2"/>
<rect x="393.1" y="429.3" class="st2" width="5.9" height="48.2"/>
<rect x="302.3" y="190.8" transform="matrix(0.7751 -0.6318 0.6318 0.7751 -67.1167 241.1868)" class="st1" width="5.9" height="48.2"/>
<rect x="287.4" y="385.9" transform="matrix(0.7533 0.6576 -0.6576 0.7533 341.2527 -89.8271)" class="st1" width="5.9" height="48.2"/>
<rect x="495.5" y="377.4" transform="matrix(0.6429 -0.7659 0.7659 0.6429 -129.5269 525.1544)" class="st1" width="5.9" height="48.2"/>
<path class="st1" d="M442.6,355.9l-3.5-0.1c0,0-10.6-2.2-18.7-6.5c0,0,0,0,0-0.1c0,0-1.4-4.3-5.9-4.1c0,0-0.1,0-0.1,0
	c-1.4-1.4-2.4-2.8-2.9-4.4l-0.1-2.2l3.9,0.3c8.3,1.3,16.9-4.8,16.9-4.8c-4.3-1.3-3.1-4.5-0.6-11.2c2.4-6.7-2.8-14.1-2.8-14.1
	c3.8-0.6,3.5-9,0-17c-3.5-8-6.4-22.3-6.4-22.3c-7.4-19.4-22.4-18.1-22.4-18.1l-1.3,0h-2.5h-0.4h-2.5l-1.3,0c0,0-15.1-1.4-22.4,18.1
	c0,0-2.8,14.3-6.4,22.3c-3.5,8-3.8,16.3,0,17c0,0-5.2,7.4-2.8,14.1c2.4,6.7,3.7,9.9-0.6,11.2c0,0,8.5,6.1,16.9,4.8l3.9-0.3l-0.1,2.2
	c-0.5,1.6-1.5,3.1-2.9,4.4c0,0-0.1,0-0.1,0c-4.5-0.2-5.9,4.1-5.9,4.1c0,0,0,0,0,0.1c-8.1,4.3-18.7,6.5-18.7,6.5l-3.5,0.1
	c-21.7,2.9-20.5,22.6-20.5,22.6h134.2C463.1,378.5,464.3,358.7,442.6,355.9z"/>
<path class="st3" d="M565.9,170.6l-1.5-0.1c0,0-4.5-0.9-7.9-2.8c0,0,0,0,0,0c0,0-0.6-1.8-2.5-1.7c0,0,0,0,0,0
	c-0.6-0.6-1-1.2-1.2-1.9l0-0.9l1.7,0.1c3.5,0.6,7.1-2,7.1-2c-1.8-0.5-1.3-1.9-0.3-4.7c1-2.8-1.2-6-1.2-6c1.6-0.3,1.5-3.8,0-7.2
	c-1.5-3.4-2.7-9.4-2.7-9.4c-3.1-8.2-9.5-7.6-9.5-7.6l-0.5,0h-1.1h-0.2H545l-0.5,0c0,0-6.4-0.6-9.5,7.6c0,0-1.2,6.1-2.7,9.4
	c-1.5,3.4-1.6,6.9,0,7.2c0,0-2.2,3.1-1.2,6c1,2.8,1.5,4.2-0.3,4.7c0,0,3.6,2.6,7.1,2l1.7-0.1l0,0.9c-0.2,0.7-0.6,1.3-1.2,1.9
	c0,0,0,0,0,0c-1.9-0.1-2.5,1.7-2.5,1.7c0,0,0,0,0,0c-3.4,1.8-7.9,2.8-7.9,2.8l-1.5,0.1c-9.2,1.2-8.7,9.6-8.7,9.6h56.8
	C574.6,180.2,575.1,171.8,565.9,170.6z"/>
<path class="st3" d="M265.3,168.8l-1.5-0.1c0,0-4.5-0.9-7.9-2.8c0,0,0,0,0,0c0,0-0.6-1.8-2.5-1.7c0,0,0,0,0,0
	c-0.6-0.6-1-1.2-1.2-1.9l0-0.9l1.7,0.1c3.5,0.6,7.1-2,7.1-2c-1.8-0.5-1.3-1.9-0.3-4.7c1-2.8-1.2-6-1.2-6c1.6-0.3,1.5-3.8,0-7.2
	c-1.5-3.4-2.7-9.4-2.7-9.4c-3.1-8.2-9.5-7.6-9.5-7.6l-0.5,0h-1.1h-0.2h-1.1l-0.5,0c0,0-6.4-0.6-9.5,7.6c0,0-1.2,6.1-2.7,9.4
	c-1.5,3.4-1.6,6.9,0,7.2c0,0-2.2,3.1-1.2,6c1,2.8,1.5,4.2-0.3,4.7c0,0,3.6,2.6,7.1,2l1.7-0.1l0,0.9c-0.2,0.7-0.6,1.3-1.2,1.9
	c0,0,0,0,0,0c-1.9-0.1-2.5,1.7-2.5,1.7c0,0,0,0,0,0c-3.4,1.8-7.9,2.8-7.9,2.8l-1.5,0.1c-9.2,1.2-8.7,9.6-8.7,9.6h56.8
	C273.9,178.4,274.4,170,265.3,168.8z"/>
<path class="st3" d="M252.7,479.6l-1.5-0.1c0,0-4.5-0.9-7.9-2.8c0,0,0,0,0,0c0,0-0.6-1.8-2.5-1.7c0,0,0,0,0,0
	c-0.6-0.6-1-1.2-1.2-1.9l0-0.9l1.7,0.1c3.5,0.6,7.1-2,7.1-2c-1.8-0.5-1.3-1.9-0.3-4.7c1-2.8-1.2-6-1.2-6c1.6-0.3,1.5-3.8,0-7.2
	c-1.5-3.4-2.7-9.4-2.7-9.4c-3.1-8.2-9.5-7.6-9.5-7.6l-0.5,0h-1.1h-0.2h-1.1l-0.5,0c0,0-6.4-0.6-9.5,7.6c0,0-1.2,6.1-2.7,9.4
	c-1.5,3.4-1.6,6.9,0,7.2c0,0-2.2,3.1-1.2,6c1,2.8,1.5,4.2-0.3,4.7c0,0,3.6,2.6,7.1,2l1.7-0.1l0,0.9c-0.2,0.7-0.6,1.3-1.2,1.9
	c0,0,0,0,0,0c-1.9-0.1-2.5,1.7-2.5,1.7c0,0,0,0,0,0c-3.4,1.8-7.9,2.8-7.9,2.8l-1.5,0.1c-9.2,1.2-8.7,9.6-8.7,9.6h56.8
	C261.4,489.2,261.9,480.9,252.7,479.6z"/>
<path class="st3" d="M581.1,464.1l-1.5-0.1c0,0-4.5-0.9-7.9-2.8c0,0,0,0,0,0c0,0-0.6-1.8-2.5-1.7c0,0,0,0,0,0
	c-0.6-0.6-1-1.2-1.2-1.9l0-0.9l1.7,0.1c3.5,0.6,7.1-2,7.1-2c-1.8-0.5-1.3-1.9-0.3-4.7c1-2.8-1.2-6-1.2-6c1.6-0.3,1.5-3.8,0-7.2
	c-1.5-3.4-2.7-9.4-2.7-9.4c-3.1-8.2-9.5-7.6-9.5-7.6l-0.5,0h-1.1h-0.2h-1.1l-0.5,0c0,0-6.4-0.6-9.5,7.6c0,0-1.2,6.1-2.7,9.4
	c-1.5,3.4-1.6,6.9,0,7.2c0,0-2.2,3.1-1.2,6c1,2.8,1.5,4.2-0.3,4.7c0,0,3.6,2.6,7.1,2l1.7-0.1l0,0.9c-0.2,0.7-0.6,1.3-1.2,1.9
	c0,0,0,0,0,0c-1.9-0.1-2.5,1.7-2.5,1.7c0,0,0,0,0,0c-3.4,1.8-7.9,2.8-7.9,2.8l-1.5,0.1c-9.2,1.2-8.7,9.6-8.7,9.6h56.8
	C589.8,473.7,590.3,465.3,581.1,464.1z"/>
<path class="st3" d="M185.2,288.5c3.3-1.7,5.3,1.1,5.3,1.1c4.6,0.4,4.6,4,4.6,4c3.2,1.4,0.5,5.6,0.5,5.6c0.7,1.8,0.4,3.1,0.4,3.1
	c-0.9,2.6-0.5,4.3-0.5,4.3c0.2-0.4,1.1-0.6,1.1-0.6c1.7,0.5-0.9,3.9-0.9,3.9c-0.5,1.2-0.6,2-0.6,2c0,1.5-1.3,1.5-1.3,1.5l-0.3,2.7
	c0,1.7-1.1,2.6-1.1,2.6c0,6.1,2.2,6.3,2.2,6.3c1,0,1.9,1,1.9,1c3.3,3.1,13.6,7,13.6,7c7.9,1.9,8.3,8.3,8.3,8.3H152
	c0,0,0.4-6.3,8.3-8.3c0,0,10.3-3.9,13.6-7c0,0,0.9-1,1.9-1c0,0,2.2-0.2,2.2-6.3c0,0-1.1-0.8-1.1-2.6l-0.3-2.7c0,0-1.3,0-1.3-1.5
	c0,0-0.1-0.8-0.6-2c0,0-2.7-3.4-0.9-3.9c0,0,0.9,0.2,1.1,0.6c0,0,0.4-1.7-0.5-4.3c0,0-0.3-1.3,0.4-3.1c0,0-2.7-4.2,0.5-5.6
	c0,0,0-3.6,4.6-4C179.9,289.6,181.9,286.8,185.2,288.5L185.2,288.5z"/>
<path class="st3" d="M393.8,78.8c3.3-1.7,5.3,1.1,5.3,1.1c4.6,0.4,4.6,4,4.6,4c3.2,1.4,0.5,5.6,0.5,5.6c0.7,1.8,0.4,3.1,0.4,3.1
	c-0.9,2.6-0.5,4.3-0.5,4.3c0.2-0.4,1.1-0.6,1.1-0.6c1.7,0.5-0.9,3.9-0.9,3.9c-0.5,1.2-0.6,2-0.6,2c0,1.5-1.3,1.5-1.3,1.5l-0.3,2.7
	c0,1.7-1.1,2.6-1.1,2.6c0,6.1,2.2,6.3,2.2,6.3c1,0,1.9,1,1.9,1c3.3,3.1,13.6,7,13.6,7c7.9,1.9,8.3,8.3,8.3,8.3h-66.5
	c0,0,0.4-6.3,8.3-8.3c0,0,10.3-3.9,13.6-7c0,0,0.9-1,1.9-1c0,0,2.2-0.2,2.2-6.3c0,0-1.1-0.8-1.1-2.6l-0.3-2.7c0,0-1.3,0-1.3-1.5
	c0,0-0.1-0.8-0.6-2c0,0-2.7-3.4-0.9-3.9c0,0,0.9,0.2,1.1,0.6c0,0,0.4-1.7-0.5-4.3c0,0-0.3-1.3,0.4-3.1c0,0-2.7-4.2,0.5-5.6
	c0,0,0-3.6,4.6-4C388.5,79.9,390.6,77.2,393.8,78.8L393.8,78.8z"/>
<path class="st3" d="M601.5,287.5c3.3-1.7,5.3,1.1,5.3,1.1c4.6,0.4,4.6,4,4.6,4c3.2,1.4,0.5,5.6,0.5,5.6c0.7,1.8,0.4,3.1,0.4,3.1
	c-0.9,2.6-0.5,4.3-0.5,4.3c0.2-0.4,1.1-0.6,1.1-0.6c1.7,0.5-0.9,3.9-0.9,3.9c-0.5,1.2-0.6,2-0.6,2c0,1.5-1.3,1.5-1.3,1.5l-0.3,2.7
	c0,1.7-1.1,2.6-1.1,2.6c0,6.1,2.2,6.3,2.2,6.3c1,0,1.9,1,1.9,1c3.3,3.1,13.6,7,13.6,7c7.9,1.9,8.3,8.3,8.3,8.3h-66.5
	c0,0,0.4-6.3,8.3-8.3c0,0,10.3-3.9,13.6-7c0,0,0.9-1,1.9-1c0,0,2.2-0.2,2.2-6.3c0,0-1.1-0.8-1.1-2.6l-0.3-2.7c0,0-1.3,0-1.3-1.5
	c0,0-0.1-0.8-0.6-2c0,0-2.7-3.4-0.9-3.9c0,0,0.9,0.2,1.1,0.6c0,0,0.4-1.7-0.5-4.3c0,0-0.3-1.3,0.4-3.1c0,0-2.7-4.2,0.5-5.6
	c0,0,0-3.6,4.6-4C596.2,288.6,598.3,285.8,601.5,287.5L601.5,287.5z"/>
<path class="st3" d="M396.5,493.1c3.3-1.7,5.3,1.1,5.3,1.1c4.6,0.4,4.6,4,4.6,4c3.2,1.4,0.5,5.6,0.5,5.6c0.7,1.8,0.4,3.1,0.4,3.1
	c-0.9,2.6-0.5,4.3-0.5,4.3c0.2-0.4,1.1-0.6,1.1-0.6c1.7,0.5-0.9,3.9-0.9,3.9c-0.5,1.2-0.6,2-0.6,2c0,1.5-1.3,1.5-1.3,1.5l-0.3,2.7
	c0,1.7-1.1,2.6-1.1,2.6c0,6.1,2.2,6.3,2.2,6.3c1,0,1.9,1,1.9,1c3.3,3.1,13.6,7,13.6,7c7.9,1.9,8.3,8.3,8.3,8.3h-66.5
	c0,0,0.4-6.3,8.3-8.3c0,0,10.3-3.9,13.6-7c0,0,0.9-1,1.9-1c0,0,2.2-0.2,2.2-6.3c0,0-1.1-0.8-1.1-2.6l-0.3-2.7c0,0-1.3,0-1.3-1.5
	c0,0-0.1-0.8-0.6-2c0,0-2.7-3.4-0.9-3.9c0,0,0.9,0.2,1.1,0.6c0,0,0.4-1.7-0.5-4.3c0,0-0.3-1.3,0.4-3.1c0,0-2.7-4.2,0.5-5.6
	c0,0,0-3.6,4.6-4C391.2,494.2,393.2,491.5,396.5,493.1L396.5,493.1z"/>
</svg>
