<?xml version="1.0" encoding="utf-8"?>
<!-- Generator: Adobe Illustrator 21.1.0, SVG Export Plug-In . SVG Version: 6.00 Build 0)  -->
<svg version="1.1" id="Layer_1" xmlns="http://www.w3.org/2000/svg" xmlns:xlink="http://www.w3.org/1999/xlink" x="0px" y="0px"
	 viewBox="0 0 792 612" style="enable-background:new 0 0 792 612;" xml:space="preserve">
<style type="text/css">
	.st0{fill:none;stroke:url(#SVGID_1_);stroke-miterlimit:10;}
	.st1{fill:#FFFFFF;stroke:url(#SVGID_2_);stroke-width:0.9043;stroke-miterlimit:10;}
	.st2{fill:#FFFFFF;stroke:url(#SVGID_3_);stroke-width:0.9043;stroke-miterlimit:10;}
	.st3{fill:#00A299;stroke:url(#SVGID_4_);stroke-width:0.9043;stroke-miterlimit:10;}
	.st4{fill:#FFFFFF;stroke:url(#SVGID_5_);stroke-width:0.9043;stroke-miterlimit:10;}
	.st5{fill:#00A299;stroke:url(#SVGID_6_);stroke-width:0.9043;stroke-miterlimit:10;}
	.st6{fill:#00A299;stroke:url(#SVGID_7_);stroke-width:0.9043;stroke-miterlimit:10;}
	.st7{fill:#00A299;stroke:url(#SVGID_8_);stroke-width:0.9043;stroke-miterlimit:10;}
	.st8{fill:#00A299;stroke:url(#SVGID_9_);stroke-width:0.9043;stroke-miterlimit:10;}
	.st9{fill:#FFFFFF;stroke:url(#SVGID_10_);stroke-width:0.9043;stroke-miterlimit:10;}
	.st10{fill:#00A299;stroke:url(#SVGID_11_);stroke-width:0.9043;stroke-miterlimit:10;}
	.st11{fill:#FFFFFF;stroke:url(#SVGID_12_);stroke-width:0.9043;stroke-miterlimit:10;}
	.st12{fill:#00A299;stroke:url(#SVGID_13_);stroke-width:0.9043;stroke-miterlimit:10;}
	.st13{fill:#FFFFFF;stroke:url(#SVGID_14_);stroke-width:0.9043;stroke-miterlimit:10;}
	.st14{fill:#00A299;stroke:url(#SVGID_15_);stroke-width:0.9043;stroke-miterlimit:10;}
	.st15{fill:#00A299;stroke:url(#SVGID_16_);stroke-width:0.9043;stroke-miterlimit:10;}
	.st16{fill:#00A299;stroke:url(#SVGID_17_);stroke-width:0.9043;stroke-miterlimit:10;}
	.st17{fill:#00A299;stroke:url(#SVGID_18_);stroke-width:0.9043;stroke-miterlimit:10;}
	.st18{fill:#FFFFFF;stroke:url(#SVGID_19_);stroke-width:0.9043;stroke-miterlimit:10;}
	.st19{fill:#00A299;stroke:url(#SVGID_20_);stroke-width:0.9043;stroke-miterlimit:10;}
	.st20{fill:#FFFFFF;stroke:url(#SVGID_21_);stroke-width:0.9043;stroke-miterlimit:10;}
	.st21{fill:#00A299;stroke:url(#SVGID_22_);stroke-width:0.9043;stroke-miterlimit:10;}
	.st22{fill:#FFFFFF;stroke:url(#SVGID_23_);stroke-width:0.9043;stroke-miterlimit:10;}
	.st23{fill:#00A299;stroke:url(#SVGID_24_);stroke-width:0.9043;stroke-miterlimit:10;}
	.st24{fill:#00A299;stroke:url(#SVGID_25_);stroke-width:0.9043;stroke-miterlimit:10;}
	.st25{fill:#00A299;stroke:url(#SVGID_26_);stroke-width:0.9043;stroke-miterlimit:10;}
	.st26{fill:#00A299;stroke:url(#SVGID_27_);stroke-width:0.9043;stroke-miterlimit:10;}
	.st27{fill:#FFFFFF;stroke:url(#SVGID_28_);stroke-width:0.9043;stroke-miterlimit:10;}
	.st28{fill:#00A299;stroke:url(#SVGID_29_);stroke-width:0.9043;stroke-miterlimit:10;}
	.st29{fill:#FFFFFF;stroke:url(#SVGID_30_);stroke-width:0.9043;stroke-miterlimit:10;}
	.st30{fill:#00A299;stroke:url(#SVGID_31_);stroke-width:0.9043;stroke-miterlimit:10;}
	.st31{fill:#FFFFFF;stroke:url(#SVGID_32_);stroke-width:0.9043;stroke-miterlimit:10;}
	.st32{fill:#00A299;stroke:url(#SVGID_33_);stroke-width:0.9043;stroke-miterlimit:10;}
	.st33{fill:#00A299;stroke:url(#SVGID_34_);stroke-width:0.9043;stroke-miterlimit:10;}
	.st34{fill:#00A299;stroke:url(#SVGID_35_);stroke-width:0.9043;stroke-miterlimit:10;}
	.st35{fill:#00A299;stroke:url(#SVGID_36_);stroke-width:0.9043;stroke-miterlimit:10;}
	.st36{fill:#FFFFFF;stroke:url(#SVGID_37_);stroke-width:0.9043;stroke-miterlimit:10;}
	.st37{fill:#00A299;stroke:url(#SVGID_38_);stroke-width:0.9043;stroke-miterlimit:10;}
</style>
<linearGradient id="SVGID_1_" gradientUnits="userSpaceOnUse" x1="715.9346" y1="465.7549" x2="715.9346" y2="465.7549">
	<stop  offset="0" style="stop-color:#FFFFFF"/>
	<stop  offset="1" style="stop-color:#000000"/>
</linearGradient>
<path class="st0" d="M715.9,465.8"/>
<g>
	<linearGradient id="SVGID_2_" gradientUnits="userSpaceOnUse" x1="122.6729" y1="300.3588" x2="673.3345" y2="300.3588">
		<stop  offset="0" style="stop-color:#FFFFFF"/>
		<stop  offset="0.4283" style="stop-color:#000000"/>
	</linearGradient>
	<path class="st1" d="M662.7,332.1c-0.2,0-0.4,0-0.6,0l-23-145.5c4-1.5,6.7-5.3,6.7-9.5c0-5.6-4.6-10.2-10.2-10.2
		c-2.4,0-4.7,0.8-6.5,2.4L526.8,67.1c1.2-1.7,1.9-3.7,1.9-5.8c0-5.6-4.6-10.2-10.2-10.2c-4.6,0-8.6,3.1-9.8,7.5L362.7,35.5
		c-0.3-5.4-4.8-9.7-10.2-9.7c-5.6,0-10.2,4.6-10.2,10.2c0,1.6,0.4,3.2,1.2,4.7l-128.5,65.5c-1.9-2.1-4.7-3.4-7.5-3.4
		c-5.6,0-10.2,4.6-10.2,10.2c0,3.4,1.7,6.6,4.6,8.5l-64.7,127c-1.3-0.5-2.6-0.8-3.9-0.8c-5.6,0-10.2,4.6-10.2,10.2
		c0,5.6,4.6,10.2,10.2,10.2c0.2,0,0.4,0,0.7-0.1l22,139.1c-4.8,0.9-8.3,5.1-8.3,10c0,5.6,4.6,10.2,10.2,10.2c1.6,0,3.1-0.4,4.6-1.1
		l105.3,105.3c-1.1,1.6-1.6,3.5-1.6,5.5c0,5.6,4.6,10.2,10.2,10.2c4,0,7.6-2.3,9.3-6l145.7,23.1c0,0.1,0,0.3,0,0.4
		c0,5.6,4.6,10.2,10.2,10.2c5.6,0,10.2-4.6,10.2-10.2c0-1.5-0.4-3-1.1-4.5l130.6-66.6c1.9,2.1,4.7,3.4,7.5,3.4
		c5.6,0,10.2-4.6,10.2-10.2c0-3.5-1.8-6.7-4.8-8.6l64.4-126.5c1.3,0.6,2.6,0.8,4,0.8c5.6,0,10.2-4.6,10.2-10.2
		C672.9,336.7,668.3,332.1,662.7,332.1z M578.8,488.5l-37.4,5.8c-0.3-1.1-0.8-2.1-1.5-3l39.1-36.1c1.6,1.4,3.7,2.2,5.8,2.2l2,19.5
		c-4.8,0.9-8.3,5.1-8.3,10C578.6,487.3,578.7,487.9,578.8,488.5z M400.2,548.1c0.5-0.5,0.9-1,1.2-1.6l20.3,9.7L400.2,548.1z
		 M141,264.6l19.3,14.2v86.8c-1.7,0.4-3.2,1.2-4.4,2.5c-3.6,3.6-3.6,9.5,0,13.1c1.3,1.3,2.9,2.1,4.7,2.5l-2.3,23.2
		c-0.1,0-0.2,0-0.3,0c0,0,0,0-0.1,0l-22-139.1C137.8,267.3,139.6,266.2,141,264.6z M217.7,112.1l22.4-4c0.3,1.1,0.8,2.1,1.5,3
		l-32.4,29.8c-1.6-1.4-3.7-2.2-5.8-2.2c-4.9,0-8.8,4-8.8,8.8c0,4.2,3.1,7.9,7.3,8.7l-1.1,14.2L168.3,215c-3.7-2.5-8.5-2-11.7,1.1
		c-3.6,3.6-3.6,9.4-0.1,13l-17.4,20.4c-0.1-0.1-0.2-0.2-0.4-0.2l64.7-126.9c1.3,0.6,2.7,0.9,4,0.9c5.6,0,10.2-4.6,10.2-10.2
		C217.8,112.7,217.8,112.5,217.7,112.1z M184.2,290c-1.1,0.5-2.1,1.2-2.9,2.1l-19.3-14.2v-46.1c1,0.1,2.1,0.1,3.1-0.2L184.2,290z
		 M258,103.7l9.3-3c0.9,2.4,2.9,4.3,5.3,5.2l0.4,1.1l-14.8-1.5C258.2,104.9,258.2,104.3,258,103.7z M308.9,110.6l-24.7-11.3
		c0.1-0.6,0.2-1.1,0.2-1.7l47,10.7c-1.1,1.2-1.9,2.7-2.2,4.3L308.9,110.6z M568.9,131.3l-11.1,7.3L537,110c0.6-0.7,1.1-1.5,1.5-2.4
		l30.2,20c-0.2,0.6-0.4,1.2-0.4,1.8C568.5,130,568.6,130.7,568.9,131.3z M285,425.6l-50.6,0.4c-0.4-4.5-4.2-8-8.8-8
		c-0.3,0-0.7,0-1,0.1l-3.2-63.5c0,0,0.1,0,0.1,0c1.4,0,2.8-0.5,4-1.3l60.7,65.7c-1.1,1.2-1.6,2.8-1.6,4.4
		C284.7,424.2,284.8,424.9,285,425.6z M422.7,78.1l13.9-2.7l60.7,19.7l-21.7,15.4c-1.2-1-2.8-1.6-4.4-1.6c-0.4,0-0.8,0-1.2,0.1
		c-1.7-2.2-4.3-3.5-7-3.5c-1.1,0-2.2,0.2-3.3,0.6L422,81.6c0.5-1,0.7-2,0.7-3C422.8,78.4,422.7,78.2,422.7,78.1z M598.7,177.2
		l-10.2,3.6l-6.5-8.9l15-0.7c0,0.4-0.1,0.7-0.1,1C597,174,597.6,175.7,598.7,177.2z M610.2,387.7l-110.3,40.5
		c-1-1.9-2.8-3.2-4.9-3.6l3.8-76.8c2.4-0.2,4.5-1.5,5.6-3.7l105.8,40.4c-0.1,0.6-0.2,1.1-0.2,1.6C610,386.6,610.1,387.1,610.2,387.7
		z M370.9,145.3l-64.5,32.3c-1.3-1.9-3.4-3.1-5.7-3.1c-0.5,0-1,0.1-1.5,0.2l-23.5-65.6l33.1,3.3l61.4,28.2c-0.1,0.5-0.1,0.9-0.1,1.3
		C370,143.1,370.3,144.3,370.9,145.3z M314,112.9l14.9,1.5c0,2.8,1.3,5.3,3.4,6.9L314,112.9z M346.1,111.7l30.3,6.9
		c0,0.1,0,0.2,0,0.4c0,2.7,1.9,5.1,4.5,5.8l-2.5,10.3c-0.6-0.1-1.1-0.2-1.6-0.2c-2.7,0-5.1,1.5-6.2,4L336,123
		c0.6,0.1,1.1,0.2,1.7,0.2c4.9,0,8.8-4,8.8-8.8C346.6,113.5,346.4,112.6,346.1,111.7z M610.8,228.1l-79.7-22.9
		c0.1-0.4,0.1-0.7,0.1-1.1c0-0.5-0.1-0.9-0.2-1.4l22.9-8c1.3,0.7,2.7,1.1,4.2,1.1c3.6,0,6.7-2.1,8.1-5.4l21.5-7.5l26,35.8
		c-0.2,0.1-0.4,0.3-0.5,0.5l0,0C610.9,221.5,610,224.9,610.8,228.1z M234.7,306.1c0.4,0.7,0.9,1.3,1.6,1.7L223.3,341
		c-0.6-0.2-1.1-0.2-1.7-0.2c-0.3,0-0.5,0-0.8,0.1l-9-37.2L234.7,306.1z M237.8,207.7l76,56.3c-0.6,1-0.9,2.2-0.9,3.4
		c0,0.7,0.1,1.4,0.3,2.1L242.3,302c-0.7-1.2-1.9-2-3.3-2.2l-5-90.1C235.5,209.4,236.8,208.7,237.8,207.7z M382.6,125
		c2.8-0.1,5.2-2.1,5.8-4.8l53.4,0.9c0,0.2,0,0.3,0.1,0.5l-58.3,18.5c-0.5-1.9-1.8-3.5-3.5-4.4L382.6,125z M316.5,329.3l-41.6,18.2
		c-1.2-2.1-3.5-3.4-5.9-3.4c-1.1,0-2.1,0.2-3,0.7l-24.6-37.4c0.3-0.3,0.6-0.6,0.8-0.9l74.4,19.9c-0.1,0.5-0.2,1-0.2,1.5
		C316.3,328.4,316.4,328.8,316.5,329.3z M242.9,303.6L314,271c1.2,1.9,3.2,3.1,5.4,3.3l2.6,46.8l0,0.1c-2.1,0.4-4,1.7-5,3.7
		L242.8,305c0.1-0.3,0.1-0.6,0.1-0.8C242.9,304,242.9,303.8,242.9,303.6z M497.9,175.9l-120,36.3c-0.4-0.9-1.1-1.6-1.8-2.2
		l68.8-83.8c2.4,1.5,5.7,1.4,8-0.5l46.5,44.7c-1.1,1.2-1.6,2.8-1.6,4.4C497.9,175.2,497.9,175.6,497.9,175.9z M326,270.6l40.3,14.8
		l57.7,21.2c-0.2,0.6-0.3,1.2-0.4,1.8l-94.1,16.8c-1-2.4-3.3-4.1-5.9-4.3l-2.6-46.8C323.2,273.8,325,272.4,326,270.6z M462.1,261.2
		l-28.8,41.5c-0.9-0.4-1.8-0.6-2.7-0.6c-0.9,0-1.7,0.2-2.5,0.5l-52.5-81.4c0.8-0.5,1.5-1.2,2.1-2l81.9,34.7l0.6,0.3
		c-0.2,0.6-0.3,1.3-0.3,1.9C459.8,258,460.6,259.9,462.1,261.2z M373.9,221.9l52.6,81.5c-0.6,0.5-1.2,1-1.6,1.7l-98.3-36.2
		c0.1-0.6,0.2-1.1,0.2-1.6c0-1.6-0.5-3.1-1.5-4.3l41.8-42.8C368.8,222.1,371.3,222.8,373.9,221.9z M492.5,337.2l-12.4-6l-42.8-20.7
		c0.1-0.5,0.2-1,0.2-1.4c0-2.2-1-4.2-2.7-5.5l28.7-41.3c1.3,0.7,2.8,1,4.3,0.7l26.9,72.2C493.8,335.6,493.1,336.3,492.5,337.2z
		 M374.7,209.1c-0.8-0.4-1.7-0.6-2.5-0.6l5.6-59.8c3.4-0.4,6-3.4,6-6.8l58.6-18.6c0.3,0.7,0.7,1.3,1.3,1.9L374.7,209.1z
		 M427.6,315.2c1,0.5,2,0.7,3,0.7c2.7,0,5-1.5,6.2-3.8l55,26.6c-0.2,0.7-0.4,1.5-0.4,2.2c0,0.9,0.2,1.8,0.5,2.7L435,376.1l-57.7,33
		c-0.4-0.5-0.9-1-1.4-1.4L427.6,315.2z M498.3,334c-0.5,0-1,0.1-1.6,0.2l-26.8-72c1.5-0.8,2.7-2.1,3.3-3.8l88.3,18.7
		c0,0.1,0,0.3,0,0.5c0,1.3,0.4,2.5,1.1,3.6l-60,54.2C501.3,334.5,499.8,334,498.3,334z M468.8,249.5c-3.2-1.1-6.5,0.4-8.1,3.1
		l-82.4-34.9c0.3-0.8,0.4-1.5,0.4-2.3c0-0.5-0.1-1.1-0.2-1.5l119.9-36.3c0.6,1.4,1.6,2.5,2.8,3.2L468.8,249.5z M306.4,185.2
		l58.7,28.4c-0.2,0.6-0.2,1.2-0.2,1.7c0,1.3,0.4,2.5,1,3.6L324,261.9c-1.2-0.9-2.7-1.4-4.2-1.4c-0.2,0-0.4,0-0.6,0L303,187.9
		C304.4,187.4,305.6,186.5,306.4,185.2z M224.9,341.6l13.1-33.2c0.7,0.1,1.3,0.1,1.9-0.1l23.5,35.7l1.2,1.8c-1.2,1-2,2.4-2.3,3.9
		l-33.8-2.4C228.3,345,227,342.8,224.9,341.6z M330.1,327.9c0-0.3,0-0.6-0.1-0.9l93.7-16.8c0.3,1.6,1.1,3,2.3,4.1l-51.7,92.6
		c-1.7-0.7-3.5-0.7-5.2,0l-41.6-73.6C329.2,332,330.1,330,330.1,327.9z M561.8,275.3l-88.3-18.7c0-0.2,0-0.4,0-0.6
		c0-1.4-0.4-2.8-1.3-3.9l47.5-42.9c2,1.7,4.8,2.2,7.3,1.1l37,61.8C563.1,272.9,562.3,274.1,561.8,275.3z M376,148.7l-5.6,59.9
		c-2,0.4-3.7,1.6-4.7,3.4l-58.6-28.4c0.2-0.7,0.4-1.5,0.4-2.2c0-0.8-0.1-1.6-0.4-2.3l64.8-32.5C373.1,147.8,374.5,148.5,376,148.7z
		 M195.8,301.9l14.2,1.5l9.2,37.9c-0.2,0.1-0.5,0.2-0.8,0.4l-26-36C193.8,304.7,195,303.4,195.8,301.9z M517.4,204.1
		c0,1.4,0.4,2.8,1.3,3.9l-47.5,42.9c-0.2-0.2-0.5-0.4-0.8-0.6l32.4-68.8c1.9,0.6,3.7,0.3,5.3-0.6l11.7,17.9
		C518.3,200.1,517.4,202,517.4,204.1z M500.8,169.3l-46.6-44.8c0.9-1.2,1.4-2.6,1.4-4.1c0-0.3,0-0.5-0.1-0.8l0.4-0.1
		c1.7,2.3,4.3,3.7,7.2,3.7c1.7,0,3.3-0.5,4.7-1.4c2,1.2,4.5,1.3,6.6,0.2l26.7,47.2C500.9,169.2,500.8,169.3,500.8,169.3z
		 M454.2,114.4c0,0.9,0.1,1.8,0.4,2.6c-1.2-2.2-3.5-3.5-6-3.5c-1.3,0-2.5,0.3-3.5,1l-24.3-31.1c0.1-0.1,0.2-0.3,0.4-0.4l36.9,24.1
		C455.6,108.8,454.2,111.5,454.2,114.4z M419.4,84.5l24.3,31.1c-1,1.1-1.7,2.4-1.9,3.9l-53.3-0.9c-0.1-1.1-0.5-2.2-1.2-3.1l24.9-31
		C414.4,85.8,417.2,85.8,419.4,84.5z M202.8,240.3c0-1.6-0.6-3.2-1.6-4.4l27.4-27.5c1.1,0.9,2.4,1.4,3.8,1.4l5,90.2
		c-0.3,0.1-0.5,0.2-0.8,0.3l-36.4-54.7C201.8,244.3,202.8,242.4,202.8,240.3z M234.3,304.1C234.3,304.2,234.3,304.2,234.3,304.1
		l-22.9-2.4L198,246.8c0.2-0.1,0.5-0.2,0.7-0.3l36.5,54.9C234.6,302.2,234.3,303.1,234.3,304.1z M196.4,300.1c0.2-0.7,0.3-1.4,0.3-2
		c0-4.1-2.8-7.6-6.7-8.6l6.2-42.3c0.1,0,0.1,0,0.2,0l13.2,54.4L196.4,300.1z M228.3,349l33.8,2.4c0.2,3.6,3.2,6.6,6.9,6.6
		c0.4,0,0.8,0,1.2-0.1l18.5,59.3c-0.4,0.2-0.8,0.4-1.1,0.7l-60.7-65.7C227.6,351.2,228.1,350.2,228.3,349z M275.9,351.1
		c0-0.6-0.1-1.3-0.3-2L317,331c0.7,1.3,1.7,2.4,3.1,3.1l-27.2,82.6c-0.5-0.1-0.9-0.1-1.3-0.1c-0.4,0-0.8,0-1.2,0.1l-18.5-59.3
		C274.3,356.2,275.9,353.8,275.9,351.1z M321.7,334.6c0.5,0.1,1,0.2,1.5,0.2c1,0,1.9-0.2,2.9-0.7l41.6,73.6
		c-1.8,1.3-2.8,3.3-2.8,5.5c0,0,0,0,0,0l-66.6,8.5c-0.5-2-1.9-3.6-3.7-4.5L321.7,334.6z M378.7,413.4c0-0.1,0-0.1,0-0.2
		c0-0.9-0.2-1.8-0.6-2.7L492.8,345c1,1.4,2.6,2.3,4.3,2.6l-3.8,76.8c-2.9,0.2-5.4,2.2-6.1,5L378.7,413.4z M566.8,188.3
		c0.1-0.5,0.1-1,0.1-1.4c0-4.9-4-8.8-8.8-8.8c-4.9,0-8.8,4-8.8,8.8c0,2.5,1.1,4.8,2.9,6.5l-21.7,7.6c-1.2-2.3-3.5-3.8-6.2-3.8
		c-1,0-2.1,0.2-3,0.7l-11.8-18c1.3-1.2,2.1-2.9,2.1-4.7l68.2-3.2l6.8,9.4L566.8,188.3z M386.1,114.2c-1.1-0.8-2.3-1.2-3.6-1.2
		c-2.5,0-4.8,1.6-5.7,4l-28.1-6.4l62-27.4c0,0.1,0.1,0.1,0.2,0.2L386.1,114.2z M300.6,188.4c0.2,0,0.5,0,0.7,0l16.2,72.6
		c-1,0.4-1.9,1-2.6,1.7l-76-56.3c0.6-1,0.9-2.2,0.9-3.4c0-0.4,0-0.8-0.1-1.2l54.7-17.4C295.5,186.8,297.9,188.4,300.6,188.4z
		 M405.7,474.2c-0.8,0-1.6,0.1-2.3,0.4L375.6,419c1.4-0.9,2.4-2.3,2.8-3.9l108.4,16.1c0,0.1,0,0.1,0,0.2c0,0.9,0.2,1.8,0.5,2.6
		l-76.2,43C409.9,475.3,407.9,474.2,405.7,474.2z M565.6,271.3l-37-61.8c0.9-0.7,1.6-1.6,2.1-2.7l81,23.3c0.5,0.9,1,1.6,1.6,2.1
		c0.8,0.8,1.7,1.4,2.7,1.8c0.2,0.7,0.5,1.4,0.9,2L573,272.5c-1.3-1.2-2.9-1.9-4.7-1.9C567.4,270.7,566.5,270.9,565.6,271.3z
		 M511.5,173.5c-0.1-0.6-0.3-1.2-0.6-1.8l46.4-30.7l21.3,29.3L511.5,173.5z M422.4,76.4c-0.9-2.8-3.6-4.8-6.5-4.8
		c-2.5,0-4.8,1.3-6,3.5l-13.3-9.8c0.5-0.8,0.8-1.7,1.1-2.5l35.6,11.6L422.4,76.4z M293.8,182.7L239.1,200c-1.1-2.5-3.5-4-6.3-4
		c-0.9,0-1.8,0.2-2.7,0.6l-20.7-35l8-11l76.6,29.2c-0.2,0.6-0.2,1.1-0.2,1.6C293.7,181.9,293.8,182.3,293.8,182.7z M226.7,199.9
		l-0.3,0.8c-0.3,0.8-0.4,1.5-0.4,2.2c0,1.5,0.5,3,1.5,4.2l-27.5,27.5c-0.7-0.5-1.5-0.9-2.3-1.1l4.9-62.5l5.8-7.9l20.3,34.3
		C227.8,198.1,227.2,198.9,226.7,199.9z M195.8,233.3c-1.3,0-2.6,0.4-3.8,1.2l-0.6,0.5c-0.4,0.4-0.8,0.8-1.1,1.2l-18.6-10
		c1.4-3.4,0.7-7.4-2-10.1l30.7-42.3L195.8,233.3z M169.1,368.4l46.3-17.5c0.9,1.7,2.4,2.9,4.3,3.4l3.4,64.1
		c-3.7,1.1-6.3,4.5-6.3,8.4c0,3.3,1.8,6.2,4.7,7.8l-3.8,13.7c-0.7-0.2-1.3-0.2-1.8-0.2c-0.4,0-0.7,0-1.1,0.1l-47.7-65.7
		c0.7-0.4,1.2-0.8,1.7-1.3C172.4,377.7,172.5,372,169.1,368.4z M371.3,420.2c1,0.1,1.9,0,2.8-0.4l27.8,55.6
		c-1.9,1.3-3.1,3.4-3.1,5.7c0,1.3,0.4,2.6,1.1,3.7l-47,38.8c-0.7-0.7-1.6-1.2-2.5-1.5L371.3,420.2z M500.7,431.8c0-0.1,0-0.3,0-0.4
		c0-0.5-0.1-1-0.2-1.5l108.6-39.9l-39.8,54.8l-29.8-5.6h0L500.7,431.8z M568.2,446.2l-30.9,42.6c-1.4-0.9-3.1-1.3-4.7-1.3
		c-1.3,0-2.6,0.3-3.8,0.8L498.9,436c0.6-0.7,1.1-1.6,1.4-2.5L568.2,446.2z M610.8,382.9L505,342.5c0.2-0.6,0.2-1.1,0.2-1.6
		c0-1.4-0.4-2.8-1.3-3.9l59.9-54.1c1.8,1.5,4.2,2.1,6.5,1.4l38.9,86.9l2.2,5c0.3,1.2,0.8,2.4,1.6,3.5l0.3,0.7
		C612.3,380.9,611.4,381.8,610.8,382.9z M615.2,217.6l-25.7-35.4l10.4-3.6c1.6,1.4,3.5,2.1,5.6,2.1c0.5,0,1,0,1.5-0.1l10.5,36.2
		C616.7,217,615.9,217.3,615.2,217.6z M507,168.4c-1.4-0.5-3-0.5-4.5,0L475.8,121c1.5-1.3,2.4-3.2,2.4-5.2c0-1.4-0.5-2.8-1.3-4
		l22.6-16l21.6,7c-0.3,2.8,0.6,5.6,2.6,7.6c0.8,0.8,1.7,1.4,2.7,1.9L507,168.4z M258.1,107.4l15.7,1.6l23.8,66.4
		c-1.3,0.6-2.3,1.7-3,2.9l-76.1-29l25.9-35.7c3.6,2.1,8.3,1.6,11.2-1.4C256.9,110.8,257.7,109.2,258.1,107.4z M202.8,167.6l0.9-11.2
		c0.2,0,0.4,0,0.6-0.1l3,5.1L202.8,167.6z M206,156c3.3-1,5.7-3.8,6.1-7.3l3.4,1.3l-7.2,9.9L206,156z M170.9,227.9l18.6,10
		c-0.1,0.2-0.1,0.3-0.2,0.5l-0.2,0.8l0,0.1c0,0.3-0.1,0.6-0.1,1c0,0.9,0.2,1.8,0.5,2.6l0.4,0.7c1,1.7,2.6,2.9,4.4,3.4l-6.2,42.3
		c-0.7-0.1-1.4,0-2.2,0.2l-19-58.3c1.1-0.5,2-1.1,2.8-1.9C170.1,228.8,170.5,228.4,170.9,227.9z M185.9,306.7
		c0.7,0.2,1.3,0.2,1.9,0.2c0.9,0,1.9-0.2,2.8-0.5l26.2,36.3c-0.6,0.6-1.2,1.3-1.6,2.1l-0.3,0.8c-0.3,0.8-0.4,1.5-0.4,2.1
		c0,0.5,0.1,1,0.2,1.6l-47.3,17.8c-0.5-0.4-1-0.6-1.5-0.9L185.9,306.7z M280.8,503.3l40.3,15.7l-42.7-13.9
		C279.4,504.7,280.2,504.1,280.8,503.3z M282.4,498.9c0-2.7-1.6-5.2-4.1-6.3l12.8-62.3c0.2,0,0.4,0,0.5,0c0.8,0,1.7-0.2,2.5-0.5
		l50,93.1c-0.9,0.6-1.6,1.4-2.1,2.3l-60.3-23.6C282.1,500.8,282.4,499.9,282.4,498.9z M298.5,423.5
		C298.5,423.5,298.5,423.4,298.5,423.5l66.6-8.5c0.6,2.2,2.3,4.1,4.5,4.8l-21,101.9c-1-0.1-2,0.1-3,0.4l-50-93.1
		C297.4,427.8,298.5,425.7,298.5,423.5z M549.5,112.7l-10.4-6.9c0.1-0.3,0.1-0.6,0.1-0.8L549.5,112.7z M509.9,170.3
		c-0.4-0.5-0.9-0.9-1.4-1.2l19.4-56.3c2.7,0.7,5.6,0.1,7.8-1.6l20.6,28.4L509.9,170.3z M521.4,101l-20.2-6.6l9.5-6.8
		c1.3,0.8,3,0.8,4.3,0.1l8.4,9.7C522.5,98.6,521.8,99.7,521.4,101z M476,76c3.1,0,6-1.7,7.6-4.4l25.2,11.5c-0.1,0.3-0.1,0.6-0.1,0.9
		c0,0.9,0.3,1.8,0.8,2.5l-10.3,7.3l-58.9-19.1l27.2-5.2C468.5,73.3,472,76,476,76z M274.9,107.2l-0.3-0.8c0.3,0,0.6,0.1,0.9,0.1
		c3.6,0,6.8-2.2,8.2-5.5l19.9,9.2L274.9,107.2z M216.6,148.5l-4.4-1.7c-0.1-1.7-0.7-3.3-1.7-4.6l32.3-29.7L216.6,148.5z
		 M384.2,542.1l-13.1-5l13.1,4.3C384.2,541.7,384.2,541.9,384.2,542.1z M400.9,486.2c1.3,1.2,3,1.9,4.7,1.9c3,0,5.7-2,6.6-4.9
		l111.1,14.1c0,0.4,0.1,0.9,0.2,1.3l-57.3,18.6l-111.4,10c-0.2-0.8-0.5-1.6-0.9-2.2L400.9,486.2z M412.6,481.5c0-0.1,0-0.2,0-0.3
		c0-0.9-0.2-1.8-0.5-2.6l76.2-43c1.3,1.8,3.3,2.8,5.5,2.8c1.4,0,2.7-0.4,3.8-1.2l29.7,52.1c-0.5,0.3-0.9,0.7-1.3,1
		c-1.4,1.4-2.4,3.3-2.6,5.4L412.6,481.5z M577.8,453.8l-39,36l31.4-43.2l5.9,1.1c0,0.3-0.1,0.5-0.1,0.8
		C576,450.4,576.6,452.2,577.8,453.8z M611.6,372l-39.6-88.6c1-0.6,1.9-1.5,2.4-2.5l23.9,9.7c0.5,4.4,4.3,7.8,8.7,7.8
		c2,0,4-0.7,5.6-2l7.1,2.9V365c-2.2,0.2-4.2,1.1-5.6,2.6C612.8,368.9,611.9,370.4,611.6,372z M615.8,289.7c0-4.9-4-8.8-8.8-8.8
		c-4.6,0-8.3,3.4-8.8,8l-23.2-9.5c0.2-0.6,0.3-1.2,0.3-1.8c0-1.3-0.4-2.6-1.1-3.7l43.7-36.5c0.5,0.5,1.1,0.9,1.8,1.2v59l-5.8-2.3
		C615.1,293.6,615.8,291.7,615.8,289.7z M597.4,169.4l-16.7,0.8l-22-30.2l11-7.3c0.9,1,2.2,1.5,3.5,1.5c0.8,0,1.5-0.2,2.2-0.5
		l24.2,32.3C598.7,166.9,597.9,168.1,597.4,169.4z M223.9,460.6c0.6-1.2,0.8-2.5,0.8-3.7c0-3.5-2-6.6-5.2-8.1l3.7-13.5
		c0.8,0.3,1.6,0.4,2.4,0.4c4.6,0,8.4-3.5,8.8-8.1l51.3-0.4c0.8,1.3,2.1,2.3,3.6,2.8l-12.8,62.1c-0.4-0.1-0.8-0.1-1.1-0.1
		c-3,0-5.8,2.1-6.6,5l-0.2,0.9c0,0.3-0.1,0.6-0.1,1c0,0.5,0.1,1.1,0.3,1.8l0.3,0.8c0.1,0.2,0.2,0.4,0.3,0.6l-10.3-3.3
		c0.4-2.9-0.6-5.8-2.6-7.8c-3-3-7.8-3.6-11.4-1.3L223.9,460.6z M621.4,300.1l6.2,2.5c-0.6,1.2-0.9,2.5-0.9,3.8c0,3.5,2,6.6,5.2,8
		l-10.5,47.3V300.1z M621.4,298.3v-59.1c0.5,0.1,1,0.1,1.4,0.1L633,298c-1.8,0.5-3.4,1.6-4.5,3.1L621.4,298.3z M634.6,297.5
		l-10.1-58.6c2.9-0.9,4.9-3.5,4.9-6.6c0-0.4,0-0.9-0.1-1.4l0-0.1l-1.3-1.1c1.7-3.6,1-7.7-1.8-10.5c-0.7-0.7-1.6-1.3-2.6-1.8
		l9.7-30.3c0.4,0.1,0.9,0.2,1.3,0.2V297.5z M524.8,96.4l-5.7-6.6l7.5,5.6C525.9,95.7,525.3,96,524.8,96.4z M395.2,67.1
		c0.1-0.1,0.2-0.2,0.3-0.3l13.7,10.1c-0.2,0.6-0.2,1.1-0.2,1.7c0,1.1,0.3,2.1,0.8,3.1l-64,28.2l-0.5-0.1c-1.6-2.6-4.4-4.2-7.5-4.2
		c-1.7,0-3.3,0.5-4.8,1.4l-48.8-11.1c0-0.2-0.1-0.4-0.1-0.6L380.1,64c0.5,1.2,1.1,2.2,2,3.1C385.7,70.7,391.6,70.7,395.2,67.1z
		 M162.1,280.2l18.1,13.4c-0.8,1.4-1.2,2.9-1.2,4.5c0,3.5,2,6.6,5.2,8l-19.8,59.6c-0.7-0.2-1.4-0.3-2.1-0.3c-0.1,0-0.1,0-0.2,0
		V280.2z M386.9,535.2c-1.2,1.2-2,2.7-2.4,4.4l-29.6-9.6c0.1-0.4,0.1-0.7,0.1-1.1l103.8-9.3l-56.9,18.5c-0.5-1.1-1.1-2.1-1.9-2.9
		c-1.7-1.7-4.1-2.7-6.5-2.7c0,0,0,0,0,0C391,532.5,388.6,533.5,386.9,535.2z M474.3,516.5l49.7-16.2c0.2,0.5,0.5,1,0.8,1.5l-9.6,7.1
		c-1.7-1.9-4-2.9-6.5-2.9c-4.6,0-8.5,3.7-8.8,8.3L474.3,516.5z M576.4,446l-5.1-1l40-55c0.5,0.7,1,1.3,1.7,1.7l-25.5,48.3
		c-0.9-0.3-1.8-0.4-2.6-0.4C580.9,439.7,577.5,442.3,576.4,446z M616.2,393c0.2,0,0.5,0.1,0.7,0.1c1.3,0,2.7-0.4,3.9-1.2l0.1-0.1
		l0.1-0.1c0.8-2,1.7-4.1,2.7-6.7l0-0.1l0-0.1c-0.1-0.5-0.3-1.1-0.6-1.6c1.5-0.4,2.9-1.2,4-2.3c2.8-2.8,3.5-7,1.8-10.5l27-20.4
		c0.4,0.4,0.9,0.7,1.3,1l-64.4,126.5c-0.1,0-0.1-0.1-0.2-0.1L616.2,393z M652.5,342.4c0,2.2,0.7,4.4,2.1,6.1l-26.7,20.1
		c-0.3-0.4-0.6-0.7-0.8-1c-1.2-1.2-2.8-2.1-4.6-2.4l11.1-50.2c0.7,0.2,1.3,0.3,1.9,0.3c1.6,0,3.2-0.4,4.6-1.3l15.7,20.8
		C653.7,336.7,652.5,339.5,652.5,342.4z M621.9,216.7c-0.7-0.2-1.4-0.2-2.1-0.2c-0.2,0-0.4,0-0.5,0L608.7,180
		c3.2-1.3,5.3-4.4,5.3-7.9c0-4.7-3.8-8.5-8.5-8.5c-1.5,0-3.1,0.4-4.4,1.2l-22.8-30.4l48.6,37.3c-1.1,1.7-1.6,3.5-1.6,5.4
		c0,4.1,2.5,7.8,6.3,9.4L621.9,216.7z M625.2,168.1l-47.6-36.5c0.4-0.7,0.6-1.5,0.6-2.2c0-2.9-2.5-5.2-5.6-4.8l-46.8-55.9
		L625.2,168.1z M570,125.8l-30.8-23.1c-0.3-2-1.2-3.9-2.6-5.3c-2.1-2.1-5-3-7.9-2.6l-11.9-8.9c0.3-0.6,0.4-1.2,0.4-1.8
		c0-1.8-1.1-3.3-2.7-4l1.7-8.8c0.8,0.2,1.5,0.3,2.1,0.3c2.1,0,4.1-0.6,5.8-1.9l46.6,55.6C570.5,125.4,570.3,125.6,570,125.8z
		 M512.8,79.7c-1,0-1.9,0.4-2.7,1.1l-3.3-2.5l2.7,3.2c0,0,0,0,0,0l-25.2-11.5c0.3-0.9,0.5-1.9,0.5-2.8c0-0.5-0.1-1.1-0.2-1.7
		l23.8-2.3c0.6,3.4,2.9,6.2,6.1,7.5L512.8,79.7z M508.2,61.3l-24.1,2.3c-1.4-3.3-4.5-5.4-8.1-5.4c-4.9,0-8.8,4-8.8,8.8
		c0,0.2,0,0.4,0,0.7l-30.3,5.8l-39.1-12.7c0.1-2.6-0.9-5.1-2.7-6.9c-3.6-3.6-9.5-3.6-13.1,0c-0.1,0.1-0.2,0.2-0.3,0.4L362,39.8
		c0.3-0.8,0.6-1.7,0.7-2.5l145.6,23.1C508.2,60.7,508.2,61,508.2,61.3C508.2,61.3,508.2,61.3,508.2,61.3z M379.6,62.3l-96.2,31.3
		c-1.5-2.9-4.5-4.8-7.8-4.8c-4.9,0-8.8,4-8.8,8.8c0,0.4,0,0.9,0.1,1.3l-9.3,3c-0.5-1.1-1.1-2.1-2-2.9c-1.7-1.7-4.1-2.7-6.5-2.7
		c-2.5,0-4.8,1-6.5,2.7c-1.9,1.9-2.9,4.5-2.6,7.3l-22.5,4c-0.3-1-0.6-1.9-1.2-2.7l128.3-65.4c1.9,2.5,4.9,4,8.1,4
		c3.5,0,6.7-1.8,8.6-4.8l19.6,14.4C379.6,57.8,379.2,60.1,379.6,62.3z M158,230.3c0.7,0.5,1.5,0.8,2.3,1.1v45.2L142,263.2
		c1-1.6,1.5-3.4,1.5-5.3c0-2.7-1-5.2-3-7.1L158,230.3z M162.3,383.9c1.1,0,2.2-0.2,3.2-0.6l47.4,65.3c-1.8,0.6-3.3,1.8-4.3,3.4
		l-41.8-30c0.8-1.5,1.3-3.2,1.3-4.9c0-4.8-3.4-9-8.1-10L162.3,383.9z M165.8,423.5l41.9,30.1c-0.4,1.1-0.7,2.2-0.7,3.3
		c0,4.9,4,8.8,8.8,8.8c2.7,0,5.3-1.3,7-3.4l20.7,28.5c-0.1,0.1-0.2,0.1-0.2,0.2c-1.7,1.8-2.7,4.1-2.7,6.5c0,2.5,1,4.8,2.7,6.5
		c2.8,2.8,7.2,3.5,10.7,1.7l15.3,23.8c-0.2,0.2-0.4,0.3-0.5,0.5L164.1,425.2C164.7,424.7,165.3,424.1,165.8,423.5z M256.5,504.1
		c1-1,1.7-2.1,2.1-3.5l13.7,4.4c0.7,0.3,1.4,0.6,2,0.7l66.9,21.7c-0.1,0.4-0.1,0.8-0.1,1.2c0,0.2,0,0.3,0,0.5l-54.7,6.8
		c-0.5-5.2-4.9-9.1-10.1-9.1c-2,0-3.9,0.6-5.5,1.7l-15.2-23.7C256,504.6,256.2,504.4,256.5,504.1z M286.6,537.8l55-6.8
		c0.6,1.8,1.9,3.2,3.6,4l0.8,0.2c0.7,0.1,1.3,0.3,2,0.4l0.1,0c2.2,0,4.3-1.1,5.6-3l30.9,11.6c0.4,1.6,1.2,3,2.3,4.1
		c3.1,3.1,8,3.6,11.6,1.1l33.3,12.5c0,0.2-0.1,0.3-0.1,0.5l-145.4-23C286.4,538.9,286.5,538.3,286.6,537.8z M402.4,539.8l64.5-21
		l33-3c0.2,1.2,0.5,2.3,1.1,3.3l-52.4,38.1c-1.9-1.8-4.4-2.8-7-2.8c-3.6,0-6.9,1.9-8.8,5l-30.7-14.6
		C402.7,543.3,402.8,541.5,402.4,539.8z M502.1,520.6c1.7,1.9,4,3,6.5,3c4.9,0,8.8-4,8.8-8.8c0-1.6-0.4-3.1-1.2-4.4l9.6-7.1
		c0,0,0.1,0.1,0.1,0.1c1.7,1.7,4.1,2.7,6.5,2.7c0,0,0,0,0,0c2.5,0,4.8-1,6.5-2.7c1.9-1.9,2.9-4.5,2.7-7.2l37.5-5.8
		c0.2,0.7,0.6,1.3,0.9,1.9l-130.4,66.4L502.1,520.6z M593.7,448.5c0-3.2-1.8-6.2-4.6-7.7l25.2-47.8l-23.6,83.8
		c-0.6-0.1-1.3-0.2-1.9-0.2c-0.1,0-0.1,0-0.1,0l-2-19.4C590.8,456.3,593.7,452.7,593.7,448.5z M644.4,306.4c0-3.4-1.9-6.4-4.9-7.9
		l0.4-0.6l0-0.4c0-0.2,0-0.4,0-0.7c0-0.2,0-0.4,0-0.6v-1.7l-2,3.5c-0.5-0.1-0.9-0.2-1.4-0.3V187.3c0.3,0,0.5-0.1,0.8-0.1l23,145.2
		c-1,0.3-2,0.7-3,1.3l-15.8-20.9C643.3,311.2,644.4,308.9,644.4,306.4z"/>
	<g>
		<g>
			<linearGradient id="SVGID_3_" gradientUnits="userSpaceOnUse" x1="229.6438" y1="513.4498" x2="302.6711" y2="513.4498">
				<stop  offset="0" style="stop-color:#FFFFFF"/>
				<stop  offset="0.4283" style="stop-color:#000000"/>
			</linearGradient>
			<circle class="st2" cx="266.2" cy="513.4" r="36.1"/>
		</g>
		<linearGradient id="SVGID_4_" gradientUnits="userSpaceOnUse" x1="253.1093" y1="513.4498" x2="279.2056" y2="513.4498">
			<stop  offset="0" style="stop-color:#FFFFFF"/>
			<stop  offset="0.4283" style="stop-color:#000000"/>
		</linearGradient>
		<path class="st3" d="M274.7,495h-17c-2.3,0-4.1,1.8-4.1,4v29c0,2.2,1.8,4,4.1,4h17c2.3,0,4.1-1.8,4.1-4v-29
			C278.8,496.8,276.9,495,274.7,495z M266.2,528.3c-1.3,0-2.3-1-2.3-2.2c0-1.2,1-2.2,2.3-2.2c1.3,0,2.3,1,2.3,2.2
			C268.4,527.3,267.4,528.3,266.2,528.3z M275.2,521.6h-18.2v-23h18.2V521.6z"/>
	</g>
	<g>
		<g>
			<linearGradient id="SVGID_5_" gradientUnits="userSpaceOnUse" x1="340.0172" y1="417.0791" x2="413.0446" y2="417.0791">
				<stop  offset="0" style="stop-color:#FFFFFF"/>
				<stop  offset="0.4283" style="stop-color:#000000"/>
			</linearGradient>
			<circle class="st4" cx="376.5" cy="417.1" r="36.1"/>
		</g>
		<g>
			<linearGradient id="SVGID_6_" gradientUnits="userSpaceOnUse" x1="366.4985" y1="426.7269" x2="387.8093" y2="426.7269">
				<stop  offset="0" style="stop-color:#FFFFFF"/>
				<stop  offset="0.4283" style="stop-color:#000000"/>
			</linearGradient>
			<path class="st5" d="M367.7,426.5c0,0,0.1-0.1,0.1-0.1c0,0,0.1,0,0.1-0.1c2.3-2.4,5.6-3.8,9.2-3.8v0c0,0,0.1,0,0.1,0
				c0.1,0,0.1,0,0.1,0v0c3.6,0,6.9,1.4,9.1,3.8c0,0,0.1,0,0.1,0.1c0,0,0.1,0.1,0.1,0.1c0.8,0.7,0.9,1.7,0.4,2.2l-1.7,1.7
				c-0.6,0.6-1.6,0.5-2.4-0.2c0,0,0,0-0.1-0.1l0,0c0,0,0,0-0.1-0.1c-0.1-0.1-0.1-0.2-0.2-0.2c-1.3-1.4-3.2-2.3-5.3-2.2v0
				c0,0-0.1,0-0.1,0c0,0,0,0,0,0c0,0,0,0,0,0c0,0-0.1,0-0.1,0v0c-2.1,0-4,0.8-5.3,2.2c-0.1,0.1-0.1,0.2-0.2,0.2c0,0,0,0-0.1,0.1l0,0
				c0,0,0,0-0.1,0.1c-0.8,0.7-1.9,0.8-2.4,0.2l-1.7-1.7C366.7,428.2,366.9,427.2,367.7,426.5z"/>
			<linearGradient id="SVGID_7_" gradientUnits="userSpaceOnUse" x1="350.5541" y1="404.918" x2="403.7533" y2="404.918">
				<stop  offset="0" style="stop-color:#FFFFFF"/>
				<stop  offset="0.4283" style="stop-color:#000000"/>
			</linearGradient>
			<path class="st6" d="M351.5,407.3c0-0.1,0.1-0.1,0.2-0.2c0.1-0.1,0.1-0.1,0.2-0.2c6.6-6,15.6-9.5,25.3-9.2
				c9.7-0.3,18.7,3.3,25.3,9.2c0.1,0.1,0.2,0.1,0.2,0.2c0.1,0.1,0.1,0.1,0.2,0.2c0.6,0.7,0.6,1.7,0,2.3l-2,2.1
				c-0.6,0.6-1.6,0.7-2.4,0.2l0,0c0,0,0,0,0,0c-0.1,0-0.1-0.1-0.2-0.2c-0.1-0.1-0.2-0.2-0.2-0.3c-5.4-4.8-12.7-7.7-20.7-7.5v0
				c0,0-0.1,0-0.1,0c0,0-0.1,0-0.1,0v0c-7.9-0.2-15.3,2.6-20.7,7.5c-0.1,0.1-0.2,0.2-0.2,0.3c-0.1,0.1-0.1,0.1-0.2,0.2c0,0,0,0,0,0
				l0,0c-0.8,0.5-1.8,0.4-2.4-0.2l-2-2.1C350.8,408.9,350.9,408,351.5,407.3z"/>
			<linearGradient id="SVGID_8_" gradientUnits="userSpaceOnUse" x1="359.1992" y1="416.1601" x2="395.1084" y2="416.1601">
				<stop  offset="0" style="stop-color:#FFFFFF"/>
				<stop  offset="0.4283" style="stop-color:#000000"/>
			</linearGradient>
			<path class="st7" d="M360.3,417.1c0.1-0.1,0.2-0.1,0.2-0.2c4.2-4,10.1-6.5,16.4-6.5v0c0,0,0.1,0,0.1,0c0.1,0,0.1,0,0.1,0v0
				c6.4,0,12.2,2.4,16.4,6.5c0.1,0.1,0.2,0.1,0.2,0.2c0,0,0.1,0.1,0.1,0.1c0.7,0.7,0.8,1.7,0.2,2.3l-1.9,1.9c-0.6,0.6-1.6,0.6-2.4,0
				c-0.1,0-0.1-0.1-0.2-0.1c-0.1-0.1-0.3-0.3-0.4-0.4c-3.2-3-7.6-4.8-12.3-4.7c-4.8-0.1-9.1,1.7-12.3,4.7c-0.1,0.1-0.2,0.3-0.4,0.4
				c-0.1,0-0.1,0.1-0.2,0.1c-0.8,0.5-1.8,0.5-2.4,0l-1.9-1.9C359.5,418.9,359.5,417.9,360.3,417.1
				C360.3,417.2,360.3,417.2,360.3,417.1z"/>
			<linearGradient id="SVGID_9_" gradientUnits="userSpaceOnUse" x1="372.4867" y1="437.7369" x2="381.822" y2="437.7369">
				<stop  offset="0" style="stop-color:#FFFFFF"/>
				<stop  offset="0.4283" style="stop-color:#000000"/>
			</linearGradient>
			<ellipse class="st8" cx="377.2" cy="437.7" rx="4.2" ry="4.2"/>
		</g>
	</g>
	<g>
		<g>
			<linearGradient id="SVGID_10_" gradientUnits="userSpaceOnUse" x1="118.6655" y1="397.4034" x2="191.6929" y2="397.4034">
				<stop  offset="0" style="stop-color:#FFFFFF"/>
				<stop  offset="0.4283" style="stop-color:#000000"/>
			</linearGradient>
			<circle class="st9" cx="155.2" cy="397.4" r="36.1"/>
		</g>
		<linearGradient id="SVGID_11_" gradientUnits="userSpaceOnUse" x1="134.6228" y1="397.4031" x2="175.7345" y2="397.4031">
			<stop  offset="0" style="stop-color:#FFFFFF"/>
			<stop  offset="0.4283" style="stop-color:#000000"/>
		</linearGradient>
		<path class="st10" d="M137.3,407.5c0,0,0.3,0.7,1.6,0.2l3.6-0.9c0,0,1-0.3,2.1,0.7c0,0,1.5,1,1.4,1.9l-1,5c0,0-0.3,0.8,0.6,1.4
			l4,1.5c0,0,1.1,0.1,1.4-0.8l1.7-3.1c0,0,0.6-1.4,2.4-1.3c0,0,1.9-0.2,2.5,0.8l2.3,3.7c0,0,0.4,0.9,1.6,0.4l3.5-1.5
			c0,0,1-0.6,0.7-1.5l-1.1-3.8c0,0-0.5-1,0.5-2.1c0,0,1.1-1.8,2.6-1.4l4.2,1c0,0,0.9,0.4,1.6-0.8l1.4-3.3c0,0,0.4-1.2-0.8-1.7
			l-3.5-2c0,0-1-0.4-0.9-2.2c0,0-0.3-2,1-2.6l3.4-2.1c0,0,1.1-0.5,0.6-1.7l-1.5-3.3c0,0-0.5-1.3-1.9-0.9l-4,1.3c0,0-1.4,0-2.2-0.9
			c0,0-1.4-1.4-1-2.5l0.9-3.9c0,0,0.2-1.1-0.6-1.6l-4.1-1.5c0,0-0.9-0.1-1.2,0.6l-2.3,4.1c0,0-1.1,0.9-2.6,0.6c0,0-1.6-0.1-1.9-0.5
			c0,0-2.3-3.9-2.5-4.1c0,0-0.4-0.9-1.3-0.5l-3.8,1.6c0,0-0.8,0.5-0.6,1.1l1.3,5c0,0-0.3,1.2-1.2,1.9c0,0-1.5,1.1-2.3,1l-4.1-1
			c0,0-1.2-0.4-1.7,0.6l-1.5,3.7c0,0-0.3,0.8,0.5,1.3l4.1,2.3c0,0,1.3,0.6,0.9,2.8c0,0,0.1,1.6-1.6,2.5c-1.6,0.9-3.1,1.8-3.1,1.8
			s-0.9,0.4-0.5,1.4C135.9,404.8,137.3,407.5,137.3,407.5z M148,400.4c-1.7-3.9,0.2-8.5,4.1-10.2c4-1.7,8.6,0.1,10.3,4.1
			c1.7,3.9-0.2,8.5-4.1,10.2C154.3,406.2,149.7,404.3,148,400.4z"/>
	</g>
	<g>
		<g>
			<linearGradient id="SVGID_12_" gradientUnits="userSpaceOnUse" x1="204.375" y1="332.0446" x2="277.4024" y2="332.0446">
				<stop  offset="0" style="stop-color:#FFFFFF"/>
				<stop  offset="0.4283" style="stop-color:#000000"/>
			</linearGradient>
			<circle class="st11" cx="240.9" cy="332" r="36.1"/>
		</g>
		<linearGradient id="SVGID_13_" gradientUnits="userSpaceOnUse" x1="220.5568" y1="332.357" x2="264.9861" y2="332.357">
			<stop  offset="0" style="stop-color:#FFFFFF"/>
			<stop  offset="0.4283" style="stop-color:#000000"/>
		</linearGradient>
		<path class="st12" d="M261.3,313.5h-37.1c-1.8,0-3.2,1.4-3.2,3.2v24.8c0,1.8,1.5,3.2,3.2,3.2h14.5v3h-13c-1,0-1.8,0.8-1.8,1.8
			c0,1,0.8,1.8,1.8,1.8h34.5c1,0,1.8-0.8,1.8-1.8c0-1-0.8-1.8-1.8-1.8h-11.8v-3h12.9c1.8,0,3.2-1.4,3.2-3.2v-24.8
			C264.5,314.9,263.1,313.5,261.3,313.5z M260.6,337.4c0,1.6-1.3,2.8-2.8,2.8h-30.1c-1.5,0-2.8-1.3-2.8-2.8v-16.5
			c0-1.6,1.3-2.8,2.8-2.8h30.1c1.6,0,2.8,1.3,2.8,2.8V337.4z"/>
	</g>
	<g>
		<g>
			<linearGradient id="SVGID_14_" gradientUnits="userSpaceOnUse" x1="582.2125" y1="230.7748" x2="655.2399" y2="230.7748">
				<stop  offset="0" style="stop-color:#FFFFFF"/>
				<stop  offset="0.4283" style="stop-color:#000000"/>
			</linearGradient>
			<circle class="st13" cx="618.7" cy="230.8" r="36.1"/>
		</g>
		<g>
			<linearGradient id="SVGID_15_" gradientUnits="userSpaceOnUse" x1="609.9355" y1="240.0985" x2="618.0272" y2="240.0985">
				<stop  offset="0" style="stop-color:#FFFFFF"/>
				<stop  offset="0.4283" style="stop-color:#000000"/>
			</linearGradient>
			<path class="st14" d="M617.6,249.4v-15c0-2-1.6-3.5-3.6-3.5c-2,0-3.6,1.6-3.6,3.5v15H617.6z"/>
			<linearGradient id="SVGID_16_" gradientUnits="userSpaceOnUse" x1="619.4279" y1="235.3406" x2="627.5205" y2="235.3406">
				<stop  offset="0" style="stop-color:#FFFFFF"/>
				<stop  offset="0.4283" style="stop-color:#000000"/>
			</linearGradient>
			<path class="st15" d="M627.1,249.4v-24.5c0-2-1.6-3.5-3.6-3.5s-3.6,1.6-3.6,3.5v24.5H627.1z"/>
			<linearGradient id="SVGID_17_" gradientUnits="userSpaceOnUse" x1="628.9219" y1="230.775" x2="637.0164" y2="230.775">
				<stop  offset="0" style="stop-color:#FFFFFF"/>
				<stop  offset="0.4283" style="stop-color:#000000"/>
			</linearGradient>
			<path class="st16" d="M636.6,249.4v-33.6c0-2-1.6-3.5-3.6-3.5c-2,0-3.6,1.6-3.6,3.5v33.6H636.6z"/>
			<linearGradient id="SVGID_18_" gradientUnits="userSpaceOnUse" x1="600.436" y1="244.6948" x2="608.5322" y2="244.6948">
				<stop  offset="0" style="stop-color:#FFFFFF"/>
				<stop  offset="0.4283" style="stop-color:#000000"/>
			</linearGradient>
			<path class="st17" d="M608.1,249.4v-5.8c0-2-1.6-3.5-3.6-3.5c-2,0-3.6,1.6-3.6,3.5v5.8H608.1z"/>
		</g>
	</g>
	<g>
		<g>
			<linearGradient id="SVGID_19_" gradientUnits="userSpaceOnUse" x1="463.856" y1="343.1" x2="536.8842" y2="343.1">
				<stop  offset="0" style="stop-color:#FFFFFF"/>
				<stop  offset="0.4283" style="stop-color:#000000"/>
			</linearGradient>
			<circle class="st18" cx="500.4" cy="343.1" r="36.1"/>
		</g>
		<linearGradient id="SVGID_20_" gradientUnits="userSpaceOnUse" x1="476.2502" y1="343.0998" x2="524.49" y2="343.0998">
			<stop  offset="0" style="stop-color:#FFFFFF"/>
			<stop  offset="0.4283" style="stop-color:#000000"/>
		</linearGradient>
		<path class="st19" d="M515.2,340.1c0-6.5-5.3-11.8-11.8-11.8c-4.4,0-8.3,2.4-10.3,6c-0.5-0.1-1-0.1-1.5-0.1c-4,0-7.4,2.7-8.5,6.3
			c-3.6,1.1-6.3,4.5-6.3,8.5c0,4.9,4,8.9,8.9,8.9h29.5c4.9,0,8.9-4,8.9-8.9S520.1,340.2,515.2,340.1z M500.4,354.9l-8.9-11.8h5.9
			v-8.9h5.9v8.9h5.9L500.4,354.9z"/>
	</g>
	<g>
		<g>
			<linearGradient id="SVGID_21_" gradientUnits="userSpaceOnUse" x1="481.7907" y1="506.4557" x2="554.8181" y2="506.4557">
				<stop  offset="0" style="stop-color:#FFFFFF"/>
				<stop  offset="0.4283" style="stop-color:#000000"/>
			</linearGradient>
			<circle class="st20" cx="518.3" cy="506.5" r="36.1"/>
		</g>
		<g>
			<linearGradient id="SVGID_22_" gradientUnits="userSpaceOnUse" x1="499.5303" y1="506.4552" x2="537.0785" y2="506.4552">
				<stop  offset="0" style="stop-color:#FFFFFF"/>
				<stop  offset="0.4283" style="stop-color:#000000"/>
			</linearGradient>
			<path class="st21" d="M529.8,513.3c-1.6,0-3,0.5-4.2,1.4l-12-7.2c0.1-0.4,0.1-0.7,0.1-1.1c0-0.4,0-0.8-0.1-1.1l12-7.2
				c1.2,0.9,2.6,1.4,4.2,1.4c3.8,0,6.9-3.1,6.9-6.9c0-3.8-3.1-6.9-6.9-6.9c-3.8,0-6.9,3.1-6.9,6.9c0,0.4,0,0.8,0.1,1.1l-12,7.2
				c-1.2-0.9-2.6-1.4-4.2-1.4c-3.8,0-6.9,3.1-6.9,6.9c0,3.8,3.1,6.9,6.9,6.9c1.6,0,3-0.5,4.2-1.4l12,7.2c-0.1,0.4-0.1,0.7-0.1,1.1
				c0,3.8,3.1,6.9,6.9,6.9c3.8,0,6.9-3.1,6.9-6.9C536.6,516.4,533.5,513.3,529.8,513.3z"/>
		</g>
	</g>
	<g>
		<g>
			<linearGradient id="SVGID_23_" gradientUnits="userSpaceOnUse" x1="334.8026" y1="217.7132" x2="407.8299" y2="217.7132">
				<stop  offset="0" style="stop-color:#FFFFFF"/>
				<stop  offset="0.4283" style="stop-color:#000000"/>
			</linearGradient>
			<circle class="st22" cx="371.3" cy="217.7" r="36.1"/>
		</g>
		<g>
			<linearGradient id="SVGID_24_" gradientUnits="userSpaceOnUse" x1="353.2477" y1="206.2913" x2="374.843" y2="206.2913">
				<stop  offset="0" style="stop-color:#FFFFFF"/>
				<stop  offset="0.4283" style="stop-color:#000000"/>
			</linearGradient>
			<path class="st23" d="M374.4,199.5c-0.6,5.9-2.6,10.3-3.9,15.5c-4.7-2-11-2.8-16.6-1.1c1.1-5,2.7-9.5,3.9-14.4
				C361.9,196.1,369.9,197.3,374.4,199.5z"/>
			<linearGradient id="SVGID_25_" gradientUnits="userSpaceOnUse" x1="372.1942" y1="211.008" x2="394.4643" y2="211.008">
				<stop  offset="0" style="stop-color:#FFFFFF"/>
				<stop  offset="0.4283" style="stop-color:#000000"/>
			</linearGradient>
			<path class="st24" d="M377.1,202.3c4.2,2.5,11.2,2.7,16.6,1.1c-1.6,4.8-2.6,10.3-4.4,15c-4.6,2.4-13.3,2.2-16.6-1.1
				C374.1,212.2,375.5,207.1,377.1,202.3z"/>
			<linearGradient id="SVGID_26_" gradientUnits="userSpaceOnUse" x1="348.3287" y1="224.5381" x2="369.8651" y2="224.5381">
				<stop  offset="0" style="stop-color:#FFFFFF"/>
				<stop  offset="0.4283" style="stop-color:#000000"/>
			</linearGradient>
			<path class="st25" d="M369.4,217.8c-0.9,5.6-3.1,9.8-3.9,15.5c-4.9-2.2-11.1-3.7-16.6-1.1c0.7-5.6,2.6-10,3.9-15
				C357,214.6,365.5,215.4,369.4,217.8z"/>
			<linearGradient id="SVGID_27_" gradientUnits="userSpaceOnUse" x1="367.2177" y1="228.885" x2="389.4867" y2="228.885">
				<stop  offset="0" style="stop-color:#FFFFFF"/>
				<stop  offset="0.4283" style="stop-color:#000000"/>
			</linearGradient>
			<path class="st26" d="M372.1,220c4.2,3,11.3,3.2,16.6,1.1c-1.6,4.9-2.8,10.1-4.4,15c-4.3,2.9-12.7,2.5-16.6-0.6
				C368.8,230,370.2,224.7,372.1,220z"/>
		</g>
	</g>
	<g>
		<g>
			<linearGradient id="SVGID_28_" gradientUnits="userSpaceOnUse" x1="580.879" y1="378.3176" x2="653.9064" y2="378.3176">
				<stop  offset="0" style="stop-color:#FFFFFF"/>
				<stop  offset="0.4283" style="stop-color:#000000"/>
			</linearGradient>
			<circle class="st27" cx="617.4" cy="378.3" r="36.1"/>
		</g>
		<linearGradient id="SVGID_29_" gradientUnits="userSpaceOnUse" x1="595.3856" y1="378.318" x2="639.4008" y2="378.318">
			<stop  offset="0" style="stop-color:#FFFFFF"/>
			<stop  offset="0.4283" style="stop-color:#000000"/>
		</linearGradient>
		<path class="st28" d="M617.4,356.8c-11.9,0-21.6,9.7-21.6,21.6c0,11.9,9.7,21.6,21.6,21.6c11.9,0,21.6-9.7,21.6-21.6
			C638.9,366.4,629.3,356.8,617.4,356.8z M617.4,394.5c-8.9,0-16.2-7.3-16.2-16.2c0-8.9,7.3-16.2,16.2-16.2
			c8.9,0,16.2,7.3,16.2,16.2C633.6,387.2,626.3,394.5,617.4,394.5z M630.9,378.3c0,1.5-1.2,2.7-2.7,2.7h-10.8
			c-1.5,0-2.7-1.2-2.7-2.7v-10.8c0-1.5,1.2-2.7,2.7-2.7c1.5,0,2.7,1.2,2.7,2.7v8.1h8.1C629.7,375.6,630.9,376.8,630.9,378.3z"/>
	</g>
	<g>
		<g>
			<linearGradient id="SVGID_30_" gradientUnits="userSpaceOnUse" x1="422.3726" y1="126.599" x2="495.4001" y2="126.599">
				<stop  offset="0" style="stop-color:#FFFFFF"/>
				<stop  offset="0.4283" style="stop-color:#000000"/>
			</linearGradient>
			<circle class="st29" cx="458.9" cy="126.6" r="36.1"/>
		</g>
		<linearGradient id="SVGID_31_" gradientUnits="userSpaceOnUse" x1="439.434" y1="126.599" x2="478.3396" y2="126.599">
			<stop  offset="0" style="stop-color:#FFFFFF"/>
			<stop  offset="0.4283" style="stop-color:#000000"/>
		</linearGradient>
		<path class="st30" d="M471,114.2c-2.4,0-4.3,1.9-4.3,4.3c0,2.4,1.9,4.3,4.3,4.3c2.4,0,4.3-1.9,4.3-4.3
			C475.3,116.1,473.4,114.2,471,114.2z M446.7,114.2c-2.4,0-4.3,1.9-4.3,4.3c0,2.4,1.9,4.3,4.3,4.3c2.4,0,4.3-1.9,4.3-4.3
			C451,116.1,449.1,114.2,446.7,114.2z M458.9,105.6c-3.5,0-6.3,2.8-6.3,6.3c0,3.5,2.8,6.3,6.3,6.3c3.5,0,6.3-2.8,6.3-6.3
			C465.2,108.5,462.4,105.6,458.9,105.6z M477.9,143.6h-7.5v-13.7c0-1.9-0.5-3.6-1.3-5.2c0.6-0.2,1.3-0.3,1.9-0.3
			c3.8,0,6.9,3.1,6.9,6.9V143.6z M447.4,129.9v13.7h-7.5v-12.3c0-3.8,3.1-6.9,6.9-6.9c0.7,0,1.3,0.1,1.9,0.3
			C447.9,126.3,447.4,128.1,447.4,129.9z M448.9,147.6h19.9v-17.6c0-5.5-4.5-9.9-9.9-9.9c-5.5,0-9.9,4.5-9.9,9.9V147.6z"/>
	</g>
	<g>
		<g>
			<linearGradient id="SVGID_32_" gradientUnits="userSpaceOnUse" x1="164.1934" y1="137.3226" x2="237.2207" y2="137.3226">
				<stop  offset="0" style="stop-color:#FFFFFF"/>
				<stop  offset="0.4283" style="stop-color:#000000"/>
			</linearGradient>
			<circle class="st31" cx="200.7" cy="137.3" r="36.1"/>
		</g>
		<g>
			<linearGradient id="SVGID_33_" gradientUnits="userSpaceOnUse" x1="175.2135" y1="137.3226" x2="226.2006" y2="137.3226">
				<stop  offset="0" style="stop-color:#FFFFFF"/>
				<stop  offset="0.4283" style="stop-color:#000000"/>
			</linearGradient>
			<path class="st32" d="M221.9,131.2v-1.5c0-2.8-2.3-5-5.1-5h-36c-2.8,0-5.1,2.2-5.1,5V145c0,2.8,2.3,5,5.1,5h36
				c2.8,0,5.1-2.2,5.1-5v-2c2.2-0.5,3.9-2.5,3.9-4.9V136C225.7,133.7,224.1,131.7,221.9,131.2z M215.4,147h-33.5
				c-2,0.1-3.1-0.8-3-3.1V131c0-2.1,0.8-3.2,3-3.1h33.5c2.3,0,3,1,3,3.1v12.9C218.6,146.3,217.4,146.9,215.4,147z"/>
			<linearGradient id="SVGID_34_" gradientUnits="userSpaceOnUse" x1="188.1199" y1="137.4742" x2="194.0251" y2="137.4742">
				<stop  offset="0" style="stop-color:#FFFFFF"/>
				<stop  offset="0.4283" style="stop-color:#000000"/>
			</linearGradient>
			<rect x="188.6" y="129.4" class="st33" width="5" height="16.2"/>
			<linearGradient id="SVGID_35_" gradientUnits="userSpaceOnUse" x1="195.6218" y1="137.4742" x2="201.5288" y2="137.4742">
				<stop  offset="0" style="stop-color:#FFFFFF"/>
				<stop  offset="0.4283" style="stop-color:#000000"/>
			</linearGradient>
			<rect x="196.1" y="129.4" class="st34" width="5" height="16.2"/>
			<linearGradient id="SVGID_36_" gradientUnits="userSpaceOnUse" x1="180.3813" y1="137.4777" x2="186.5241" y2="137.4777">
				<stop  offset="0" style="stop-color:#FFFFFF"/>
				<stop  offset="0.4283" style="stop-color:#000000"/>
			</linearGradient>
			<path class="st35" d="M186.1,129.4h-2.5c-2,0-2.7,0.8-2.7,2.6v10.9c-0.1,2,0.9,2.7,2.7,2.6h2.5V129.4z"/>
		</g>
	</g>
	<g>
		<g>
			<linearGradient id="SVGID_37_" gradientUnits="userSpaceOnUse" x1="329.4006" y1="50.9647" x2="402.4289" y2="50.9647">
				<stop  offset="0" style="stop-color:#FFFFFF"/>
				<stop  offset="0.4283" style="stop-color:#000000"/>
			</linearGradient>
			<circle class="st36" cx="365.9" cy="51" r="36.1"/>
		</g>
		<linearGradient id="SVGID_38_" gradientUnits="userSpaceOnUse" x1="346.7267" y1="50.9647" x2="385.1026" y2="50.9647">
			<stop  offset="0" style="stop-color:#FFFFFF"/>
			<stop  offset="0.4283" style="stop-color:#000000"/>
		</linearGradient>
		<path class="st37" d="M384.6,64.5l0-24.2c0-0.7-0.6-1.3-1.4-1.3h-17.1c-0.5,0-0.9-1-0.9-1.4v-0.2c0-0.8-0.6-1.4-1.4-1.4h-9.1
			c-0.8,0-1.4,0.6-1.4,1.4v0.2c0,0.4-0.4,1.4-1,1.4h0c-0.7,0-1.3,0.6-1.3,1.3l0,7h-2.9c0,0-1.3-0.1-0.8,1.5l3.1,15.8
			c0,0.8,0.6,1.4,1.3,1.4H384C384.8,66,384.6,64.5,384.6,64.5z M383,49.3l0,15.8l-3.1-17c-0.3-0.9-1.3-0.9-1.3-0.9h-25.9v-5.4H383
			L383,49.3L383,49.3z"/>
	</g>
</g>
</svg>
