<?xml version="1.0" encoding="utf-8"?>
<!-- Generator: Adobe Illustrator 21.1.0, SVG Export Plug-In . SVG Version: 6.00 Build 0)  -->
<svg version="1.1" id="Layer_1" xmlns="http://www.w3.org/2000/svg" xmlns:xlink="http://www.w3.org/1999/xlink" x="0px" y="0px"
	 viewBox="0 0 792 612" style="enable-background:new 0 0 792 612;" xml:space="preserve">
<style type="text/css">
	.st0{fill:#010101;}
	.st1{fill:#4BC1B8;stroke:#010101;stroke-width:7.7037;stroke-linecap:round;stroke-linejoin:round;stroke-miterlimit:10;}
	.st2{fill:#FFFFFF;}
	.st3{font-family:'Krungthep';}
	.st4{font-size:69.3009px;}
	.st5{fill:none;stroke:#FFFFFF;stroke-width:7.7037;stroke-linecap:round;stroke-linejoin:round;stroke-miterlimit:10;}
	.st6{fill:none;stroke:#010101;stroke-width:7.7037;stroke-linecap:round;stroke-linejoin:round;stroke-miterlimit:10;}
	.st7{fill:none;stroke:#4BC1B8;stroke-width:7.7037;stroke-linecap:round;stroke-linejoin:round;stroke-miterlimit:10;}
</style>
<g>
	<g>
		<polygon class="st0" points="119.5,408.1 213.8,408.1 213.8,502.4 119.5,502.4 142.3,455.3 		"/>
		<polygon class="st0" points="672.5,408.1 578.2,408.1 578.2,502.4 672.5,502.4 649.7,455.3 		"/>
		<rect x="163.7" y="361.5" class="st1" width="464.7" height="93.2"/>
	</g>
	<text transform="matrix(1.0049 0 0 1 198.1533 428.0017)" class="st2 st3 st4">Bigpicture</text>
	<g>
		<path class="st0" d="M487.3,338.4H304.7c-25.8,0-46.7-20.9-46.7-46.7V192c0-25.8,20.9-46.7,46.7-46.7h182.7
			c25.8,0,46.7,20.9,46.7,46.7v99.7C534.1,317.4,513.1,338.4,487.3,338.4z"/>
		<g>
			<circle class="st2" cx="432" cy="241.8" r="87.3"/>
			<g>
				<circle class="st0" cx="432" cy="241.8" r="81.3"/>
				<circle class="st2" cx="432" cy="241.8" r="54.7"/>
			</g>
		</g>
		<line class="st5" x1="318.4" y1="188.9" x2="318.4" y2="319.5"/>
		<circle class="st5" cx="290.3" cy="184.3" r="13"/>
		<polygon class="st0" points="448.8,109.6 343.2,109.6 338.9,145.2 453.1,145.2 		"/>
		<path class="st2" d="M414.6,137.2h-37.1c-5,0-9-4.1-9-9v0c0-5,4.1-9,9-9h37.1c5,0,9,4.1,9,9v0
			C423.6,133.2,419.6,137.2,414.6,137.2z"/>
	</g>
	<g>
		<g>
			<g>
				<line class="st6" x1="164.8" y1="231" x2="214.9" y2="231"/>
				<line class="st6" x1="577.1" y1="231" x2="627.2" y2="231"/>
			</g>
		</g>
		<g>
			<g>
				<line class="st6" x1="183.7" y1="139.6" x2="229.7" y2="159.4"/>
				<line class="st6" x1="562.3" y1="302.6" x2="608.3" y2="322.5"/>
			</g>
			<g>
				<line class="st6" x1="181.2" y1="316.5" x2="227.8" y2="297.9"/>
				<line class="st6" x1="564.2" y1="164.1" x2="610.8" y2="145.6"/>
			</g>
		</g>
		<g>
			<g>
				<line class="st7" x1="227.2" y1="112.8" x2="263.8" y2="138.4"/>
			</g>
			<g>
				<line class="st7" x1="193" y1="266.8" x2="237" y2="259"/>
				<line class="st7" x1="555" y1="203" x2="599" y2="195.2"/>
			</g>
		</g>
		<g>
			<g>
				<line class="st7" x1="194.5" y1="187.8" x2="238.1" y2="197.2"/>
				<line class="st7" x1="553.9" y1="264.8" x2="597.5" y2="274.2"/>
			</g>
			<g>
				<line class="st7" x1="223" y1="343" x2="260.5" y2="318.7"/>
				<line class="st7" x1="531.5" y1="143.3" x2="569" y2="119"/>
			</g>
		</g>
	</g>
</g>
</svg>
