<?xml version="1.0" encoding="utf-8"?>
<!-- Generator: Adobe Illustrator 21.1.0, SVG Export Plug-In . SVG Version: 6.00 Build 0)  -->
<svg version="1.1" id="Layer_1" xmlns="http://www.w3.org/2000/svg" xmlns:xlink="http://www.w3.org/1999/xlink" x="0px" y="0px"
	 viewBox="0 0 792 612" style="enable-background:new 0 0 792 612;" xml:space="preserve">
<style type="text/css">
	.st0{fill:#4C494B;}
</style>
<g>
	<g>
		<rect x="248.7" y="266.5" class="st0" width="69.7" height="225.3"/>
		<path class="st0" d="M283.2,237c22.8,0,41.2-18.6,41.2-41.6c0-22.9-18.5-41.6-41.2-41.6c-22.8,0-41.2,18.6-41.2,41.6
			C242,218.3,260.4,237,283.2,237z"/>
	</g>
	<path class="st0" d="M429.9,373.5c0-31.7,14.6-50.5,42.5-50.5c25.6,0,38,18.1,38,50.5c0,32.4,0,118.2,0,118.2h69.4
		c0,0,0-82.3,0-142.6c0-60.3-34.2-89.5-82-89.5c-47.8,0-67.9,37.2-67.9,37.2v-30.3H363v225.3h66.9
		C429.9,491.7,429.9,408.2,429.9,373.5z"/>
</g>
</svg>
