<?xml version="1.0" encoding="utf-8"?>
<!-- Generator: Adobe Illustrator 21.1.0, SVG Export Plug-In . SVG Version: 6.00 Build 0)  -->
<svg version="1.1" id="Layer_1" xmlns="http://www.w3.org/2000/svg" xmlns:xlink="http://www.w3.org/1999/xlink" x="0px" y="0px"
	 viewBox="0 0 792 612" style="enable-background:new 0 0 792 612;" xml:space="preserve">
<style type="text/css">
	.st0{fill:#4B494B;}
</style>
<path class="st0" d="M168.2,467.2c42.9,27.6,92.9,42.9,147.1,42.9c177.7,0,277.8-150.1,272.7-285c18.4-13.3,34.7-30.6,48-50
	c-17.4,7.1-35.7,13.3-55.2,15.3c19.4-12.3,34.7-30.6,41.9-53.1c-18.4,11.2-38.8,19.4-61.3,23.5c-17.4-18.4-41.9-30.6-69.5-30.6
	c-62.3,0-107.2,57.2-92.9,117.5c-79.7-4.1-150.1-41.9-197.1-100.1c-25.5,42.9-13.3,99.1,29.6,127.7c-15.3,0-30.6-5.1-42.9-12.3
	c-1,43.9,30.6,85.8,76.6,95c-13.3,4.1-28.6,4.1-42.9,2c12.3,37.8,48,65.4,89.9,66.4C270.3,459,219.3,473.3,168.2,467.2z"/>
</svg>
